<?xml version="1.0" encoding="UTF-8" standalone="no"?>
<!-- Created with Inkscape (http://www.inkscape.org/) -->

<svg
   xmlns:dc="http://purl.org/dc/elements/1.1/"
   xmlns:cc="http://creativecommons.org/ns#"
   xmlns:rdf="http://www.w3.org/1999/02/22-rdf-syntax-ns#"
   xmlns:svg="http://www.w3.org/2000/svg"
   xmlns="http://www.w3.org/2000/svg"
   xmlns:sodipodi="http://sodipodi.sourceforge.net/DTD/sodipodi-0.dtd"
   xmlns:inkscape="http://www.inkscape.org/namespaces/inkscape"
   width="142.9375"
   height="35.5"
   id="svg3385"
   version="1.1"
   inkscape:version="0.48.4 r"
   sodipodi:docname="Banco Central Do Brasil.svg">
  <defs
     id="defs3387" />
  <sodipodi:namedview
     id="base"
     pagecolor="#ffffff"
     bordercolor="#666666"
     borderopacity="1.0"
     inkscape:pageopacity="0.0"
     inkscape:pageshadow="2"
     inkscape:zoom="5.9511987"
     inkscape:cx="74.126135"
     inkscape:cy="24.379493"
     inkscape:document-units="px"
     inkscape:current-layer="svg3385"
     showgrid="false"
     showguides="true"
     inkscape:guide-bbox="true"
     fit-margin-top="2"
     fit-margin-left="2"
     fit-margin-right="2"
     fit-margin-bottom="2"
     inkscape:window-width="1366"
     inkscape:window-height="705"
     inkscape:window-x="-8"
     inkscape:window-y="-8"
     inkscape:window-maximized="1" />
  <metadata
     id="metadata3390">
    <rdf:RDF>
      <cc:Work
         rdf:about="">
        <dc:format>image/svg+xml</dc:format>
        <dc:type
           rdf:resource="http://purl.org/dc/dcmitype/StillImage" />
        <dc:title></dc:title>
      </cc:Work>
    </rdf:RDF>
  </metadata>
  <path
     style="fill:#004b82;fill-opacity:1;fill-rule:nonzero;stroke:none"
     d="M 14.6875,2 12.5,4.21875 l 2.1875,0 0,-2.21875 z M 12.5,4.21875 l -5.53125,5.5 0,2.25 2.78125,0 0,1.65625 6.625,0 2.75,-2.78125 -6.625,0 0,-6.625 z m 12.15625,0 -2.75,2.75 0,6.65625 6.625,0 2.75,-2.78125 -6.625,0 0,-6.625 z M 68.3125,6.5625 c -2.90875,0 -5.0625,1.51 -5.0625,4.59375 0,3.34875 2.71625,4.53125 5.09375,4.53125 1.205,0 1.91875,-0.16875 2.59375,-0.34375 L 70.8438,13.5 c -0.64625,0.265 -1.45375,0.46875 -2.21875,0.46875 -1.7325,0 -2.9375,-1.0775 -2.9375,-2.8125 0,-1.64375 1.10625,-2.84375 2.78125,-2.84375 0.79125,0 1.51625,0.18375 2.28125,0.625 l 0.1562,-1.90625 C 70.085,6.76625 69.2225,6.5625 68.3125,6.5625 z m 7.28125,0 c -2.88,0 -4.40625,1.745 -4.40625,4.59375 0,2.79125 1.52625,4.53125 4.40625,4.53125 2.8775,0 4.4375,-1.74 4.4375,-4.53125 0,-2.84875 -1.53125,-4.59375 -4.4375,-4.59375 z m 13.15625,0 c -2.91,0 -5.0625,1.51 -5.0625,4.59375 0,3.34875 2.71375,4.53125 5.09375,4.53125 1.20375,0 1.94875,-0.16875 2.625,-0.34375 L 91.28125,13.5 c -0.6475,0.265 -1.455,0.46875 -2.21875,0.46875 -1.73375,0 -2.96875,-1.0775 -2.96875,-2.8125 0,-1.64375 1.13625,-2.84375 2.78125,-2.84375 0.8225,0 1.55,0.18375 2.3125,0.625 L 91.375,7.03125 C 90.5525,6.76625 89.66,6.5625 88.75,6.5625 z m -52.3125,0.15625 0,8.84375 3.71875,0 c 1.585,0 3.4375,-0.4475 3.4375,-2.5625 0,-1.0875 -0.5775,-1.7025 -1.78125,-1.9375 l 0,-0.0312 c 1,-0.3225 1.5625,-0.9475 1.5625,-2.0625 0,-1.52875 -1.2,-2.25 -2.84375,-2.25 l -4.09375,0 z m 10.78125,0 -3.34375,8.84375 2.375,0 0.6875,-1.90625 3.34375,0 0.625,1.90625 2.59375,0 -3.40625,-8.84375 -2.875,0 z m 6.84375,0 0,8.84375 2.15625,0 -0.0625,-6.03125 0.0312,0 3.0625,6.03125 2.90625,0 0,-8.84375 -2.125,0 0.0312,6 -0.0312,0 -2.96875,-6 -3,0 z m 38.375,0 0,8.84375 6.375,0 0,-1.6875 -4,0 0,-2 3.65625,0 0,-1.6875 -3.65625,0 0,-1.8125 3.875,0 0,-1.65625 -6.25,0 z m 7.625,0 0,8.84375 2.15625,0 -0.0625,-6.03125 0.0312,0 3.0625,6.03125 2.9375,0 0,-8.84375 -2.125,0 0.0312,6 -0.0312,0 -3,-6 -3,0 z m 9.1875,0 0,1.75 2.1875,0 0,7.09375 2.34375,0 0,-7.09375 2.15625,0 0,-1.75 -6.6875,0 z m 7.75,0 0,8.84375 2.34375,0 0,-3.5 0.5,0 c 0.88,0 1.18625,0.37875 1.65625,1.90625 l 0.53125,1.59375 2.4375,0 -0.84375,-2.4375 c -0.44125,-1.0575 -0.52,-1.73125 -1.28125,-1.9375 l 0,-0.0312 c 1.145,-0.26375 1.71875,-1.04375 1.71875,-2.21875 0,-1.5275 -1.2875,-2.21875 -2.84375,-2.21875 l -4.21875,0 z m 11.09375,0 -3.375,8.84375 2.40625,0 0.6875,-1.90625 3.3125,0 0.65625,1.90625 2.59375,0 -3.40625,-8.84375 -2.875,0 z m 6.875,0 0,8.84375 5.96875,0 0,-1.75 -3.625,0 0,-7.09375 -2.34375,0 z m -59.375,1.59375 c 1.40875,0 2,1.3175 2,2.84375 0,1.43875 -0.59125,2.8125 -2,2.8125 -1.44125,0 -1.96875,-1.37375 -1.96875,-2.8125 0,-1.52625 0.5275,-2.84375 1.96875,-2.84375 z m -36.8125,0.0625 0.71875,0 c 0.7625,0 1.53125,0.0826 1.53125,0.875 0,0.76375 -0.79875,0.9375 -1.5625,0.9375 l -0.6875,0 0,-1.8125 z m 80.5625,0 0.625,0 c 0.91125,0 1.75,0.14625 1.75,0.96875 0,0.99875 -0.985,1.03125 -1.75,1.03125 l -0.625,0 0,-2 z M 48.625,8.53125 l 0.0312,0 1.0625,3.46875 -2.21875,0 1.125,-3.46875 z m 80.875,0 0.0312,0 1.0625,3.46875 -2.21875,0 1.125,-3.46875 z m -90.71875,3.28125 0.75,0 c 0.8225,0 1.71875,0.0913 1.71875,1.03125 0,0.91125 -0.9,1.03125 -1.75,1.03125 l -0.71875,0 0,-2.0625 z m -34,0.15625 -2.78125,2.75 0,8.84375 4.96875,0 0,4.96875 4.96875,0 0,4.96875 8.84375,0 2.75,-2.78125 -8.84375,0 0,-4.9375 1.6875,0 L 19.125,23 12.5,23 l 0,-6.625 -2.75,2.75 0,1.6875 -4.96875,0 0,-8.84375 z m 19.875,4.40625 -2.75,2.75 0,6.65625 1.625,0 0,2.75 2.25,0 5.5,-5.53125 -6.625,0 0,-6.625 z M 31.28125,23 33.5,20.8125 l -2.21875,0 0,2.1875 z m 18.5625,-3.1875 c -2.9075,0 -4.4375,1.7125 -4.4375,4.5625 0,2.81875 1.55875,4.5625 4.4375,4.5625 2.8775,0 4.40625,-1.74375 4.40625,-4.5625 0,-2.85 -1.49875,-4.5625 -4.40625,-4.5625 z m 38.15625,0 c -1.76,0 -3.84375,0.5725 -3.84375,2.6875 0,3.23125 4.1875,2.19875 4.1875,3.84375 0,0.705 -0.70375,0.875 -1.4375,0.875 -0.9975,0 -1.82,-0.27 -2.4375,-0.59375 L 84.25,28.59375 c 0.79375,0.23375 1.8325,0.34375 2.65625,0.34375 1.9375,0 3.875,-0.615 3.875,-2.90625 0,-3.17125 -4.1875,-2.215 -4.1875,-3.625 0,-0.7925 0.9775,-0.84375 1.59375,-0.84375 0.645,0 1.35,0.11 1.9375,0.375 L 90.3125,20.125 C 89.695,19.92125 88.8525,19.8125 88,19.8125 z m -51.5625,0.15625 0,8.8125 3.21875,0 c 2.99625,0 5.25,-1.11625 5.25,-4.40625 0,-3.43625 -2.19375,-4.40625 -5.25,-4.40625 l -3.21875,0 z m 21.90625,0 0,8.8125 3.71875,0 c 1.585,0 3.46875,-0.415 3.46875,-2.53125 0,-1.05625 -0.6375,-1.7025 -1.8125,-1.9375 l 0,-0.0312 c 0.99875,-0.3225 1.5625,-0.94625 1.5625,-2.0625 0,-1.5275 -1.23125,-2.25 -2.875,-2.25 l -4.0625,0 z m 8.21875,0 0,8.8125 2.375,0 0,-3.46875 0.5,0 c 0.88125,0 1.185,0.38 1.65625,1.90625 l 0.5,1.5625 2.4375,0 L 73.1875,26.375 c -0.44125,-1.05625 -0.48625,-1.7325 -1.25,-1.9375 l 0,-0.0312 c 1.14625,-0.265 1.71875,-1.045 1.71875,-2.21875 0,-1.5275 -1.2875,-2.21875 -2.84375,-2.21875 l -4.25,0 z m 11.0625,0 -3.34375,8.8125 2.40625,0 0.65625,-1.875 3.34375,0 0.65625,1.875 2.59375,0 -3.40625,-8.8125 -2.90625,0 z m 14.21875,0 0,8.8125 2.34375,0 0,-8.8125 -2.34375,0 z m 3.96875,0 0,8.8125 5.96875,0 0,-1.71875 -3.625,0 0,-7.09375 -2.34375,0 z M 49.84375,21.5625 c 1.44,0 1.96875,1.285 1.96875,2.8125 0,1.4375 -0.52875,2.84375 -1.96875,2.84375 -1.43875,0 -2,-1.40625 -2,-2.84375 0,-1.5275 0.56125,-2.8125 2,-2.8125 z m 10.84375,0.0625 0.6875,0 c 0.7925,0 1.5625,0.0825 1.5625,0.875 0,0.76375 -0.79875,0.9375 -1.59375,0.9375 l -0.65625,0 0,-1.8125 z m 8.25,0 0.625,0 c 0.8825,0 1.71875,0.1475 1.71875,0.96875 0,1.02875 -0.9525,1.03125 -1.71875,1.03125 l -0.625,0 0,-2 z m -30.15625,0.0937 0.90625,0 c 1.73375,0 2.78125,0.8925 2.78125,2.65625 0,1.76125 -1.01875,2.6875 -2.78125,2.6875 l -0.90625,0 0,-5.34375 z m 40.28125,0.0625 0.0312,0 1.03125,3.46875 -2.21875,0 1.15625,-3.46875 z m -18.375,3.28125 0.71875,0 c 0.82125,0 1.71875,0.09 1.71875,1.03125 0,0.91125 -0.8675,1.03125 -1.71875,1.03125 l -0.71875,0 0,-2.0625 z"
     id="path3171"
     inkscape:connector-curvature="0" />
</svg>
