<?xml version="1.0" encoding="UTF-8" standalone="no"?>
<svg
xmlns:dc="http://purl.org/dc/elements/1.1/"
xmlns:cc="http://creativecommons.org/ns#"
xmlns:rdf="http://www.w3.org/1999/02/22-rdf-syntax-ns#"
xmlns:svg="http://www.w3.org/2000/svg"
xmlns="http://www.w3.org/2000/svg"
xmlns:sodipodi="http://sodipodi.sourceforge.net/DTD/sodipodi-0.dtd"
xmlns:inkscape="http://www.inkscape.org/namespaces/inkscape"
id="svg2"
version="1.1"
inkscape:version="0.48.0 r9654"
width="217.59801"
height="63.098373"
xml:space="preserve"
sodipodi:docname="BM&amp;FBovespa.pdf"><metadata
id="metadata8"><rdf:RDF><cc:Work
rdf:about=""><dc:format>image/svg+xml</dc:format><dc:type
rdf:resource="http://purl.org/dc/dcmitype/StillImage" /><dc:title></dc:title></cc:Work></rdf:RDF></metadata><defs
id="defs6"><clipPath
clipPathUnits="userSpaceOnUse"
id="clipPath28"><path
d="m 0,0 595.276,0 0,841.89 L 0,841.89 0,0 z"
id="path30"
inkscape:connector-curvature="0" /></clipPath><clipPath
clipPathUnits="userSpaceOnUse"
id="clipPath88"><path
d="m 0,0 595.276,0 0,841.89 L 0,841.89 0,0 z"
id="path90"
inkscape:connector-curvature="0" /></clipPath><clipPath
clipPathUnits="userSpaceOnUse"
id="clipPath212"><path
d="m 0,0 595.276,0 0,841.89 L 0,841.89 0,0 z"
id="path214"
inkscape:connector-curvature="0" /></clipPath><clipPath
clipPathUnits="userSpaceOnUse"
id="clipPath264"><path
d="m 0,0 595.276,0 0,841.89 L 0,841.89 0,0 z"
id="path266"
inkscape:connector-curvature="0" /></clipPath><clipPath
clipPathUnits="userSpaceOnUse"
id="clipPath300"><path
d="m 0,0 595.276,0 0,841.89 L 0,841.89 0,0 z"
id="path302"
inkscape:connector-curvature="0" /></clipPath><clipPath
clipPathUnits="userSpaceOnUse"
id="clipPath360"><path
d="m 0,0 595.276,0 0,841.89 L 0,841.89 0,0 z"
id="path362"
inkscape:connector-curvature="0" /></clipPath><clipPath
clipPathUnits="userSpaceOnUse"
id="clipPath438"><path
d="m 217.098,389.508 336.158,0 0,133.173 -336.158,0 0,-133.173 z"
id="path440"
inkscape:connector-curvature="0" /></clipPath><clipPath
clipPathUnits="userSpaceOnUse"
id="clipPath834"><path
d="m 0,0 595.276,0 0,841.89 L 0,841.89 0,0 z"
id="path836"
inkscape:connector-curvature="0" /></clipPath><clipPath
clipPathUnits="userSpaceOnUse"
id="clipPath850"><path
d="m 216.588,42.666 335.679,0 0,144.711 -335.679,0 0,-144.711 z"
id="path852"
inkscape:connector-curvature="0" /></clipPath><clipPath
clipPathUnits="userSpaceOnUse"
id="clipPath1966"><path
d="m 378.677,748.346 174.079,0 0,50.479 -174.079,0 0,-50.479 z"
id="path1968"
inkscape:connector-curvature="0" /></clipPath><clipPath
clipPathUnits="userSpaceOnUse"
id="clipPath1966-4"><path
inkscape:connector-curvature="0"
d="m 378.677,748.346 174.079,0 0,50.479 -174.079,0 0,-50.479 z"
id="path1968-0" /></clipPath></defs><sodipodi:namedview
pagecolor="#ffffff"
bordercolor="#666666"
borderopacity="1"
objecttolerance="10"
gridtolerance="10"
guidetolerance="10"
inkscape:pageopacity="0"
inkscape:pageshadow="2"
inkscape:window-width="1382"
inkscape:window-height="984"
id="namedview4"
showgrid="false"
fit-margin-top="0"
fit-margin-left="0"
fit-margin-right="0"
fit-margin-bottom="0"
inkscape:zoom="0.75734365"
inkscape:cx="72.841485"
inkscape:cy="-192.25939"
inkscape:window-x="0"
inkscape:window-y="0"
inkscape:window-maximized="0"
inkscape:current-layer="g10" /><g
id="g10"
inkscape:groupmode="layer"
inkscape:label="BM&amp;FBovespa"
transform="matrix(1.25,0,0,-1.25,-299.206,781.53895)"><g
clip-path="url(#clipPath1966-4)"
id="g1964"
transform="translate(-139.3125,-173.59384)"><g
transform="translate(409.3643,757.7696)"
id="g1970"><path
inkscape:connector-curvature="0"
id="path1972"
style="fill:#004685;fill-opacity:1;fill-rule:nonzero;stroke:none"
d="M 0,0 -0.292,2.012 C -0.325,2.372 -0.379,2.887 -0.41,3.29 l -0.034,0 C -0.639,2.878 -0.822,2.445 -1.04,2.022 L -2.122,0 0,0 z m -2.458,-0.681 -1.159,-2.197 -0.943,0 3.77,6.952 1.061,0 1.008,-6.952 -0.921,0 -0.292,2.197 -2.524,0 z" /></g><g
transform="translate(413.9771,754.8914)"
id="g1974"><path
inkscape:connector-curvature="0"
id="path1976"
style="fill:#004685;fill-opacity:1;fill-rule:nonzero;stroke:none"
d="m 0,0 1.388,6.952 0.985,0 1.669,-3.94 C 4.367,2.218 4.528,1.671 4.681,1.072 L 4.702,1.083 C 4.745,1.712 4.821,2.29 5.016,3.259 l 0.736,3.693 0.846,0 L 5.211,0 4.322,0 2.655,3.93 C 2.308,4.786 2.145,5.271 1.984,5.931 L 1.951,5.921 C 1.875,5.271 1.756,4.58 1.572,3.631 L 0.846,0 0,0 z" /></g><g
transform="translate(423.2172,755.4583)"
id="g1978"><path
inkscape:connector-curvature="0"
id="path1980"
style="fill:#004685;fill-opacity:1;fill-rule:nonzero;stroke:none"
d="m 0,0 c 1.062,0 1.862,1.3 1.862,2.465 0,0.579 -0.281,1.393 -1.224,1.393 -1.125,0 -1.873,-1.31 -1.873,-2.455 C -1.235,0.588 -0.759,0 -0.011,0 L 0,0 z m -0.108,-0.68 c -1.312,0 -2.047,0.928 -2.047,2.052 0,1.651 1.202,3.166 2.902,3.166 1.419,0 2.058,-1.021 2.058,-2.073 0,-1.546 -1.149,-3.145 -2.902,-3.145 l -0.011,0 z" /></g><g
transform="translate(427.9415,759.8835)"
id="g1982"><path
inkscape:connector-curvature="0"
id="path1984"
style="fill:#004685;fill-opacity:1;fill-rule:nonzero;stroke:none"
d="m 0,0 0.455,-2.847 c 0.076,-0.567 0.152,-0.959 0.163,-1.227 l 0.032,0 c 0.119,0.268 0.259,0.598 0.564,1.166 L 2.804,0 3.791,0 0.877,-4.992 0,-4.992 -0.91,0 0,0 z" /></g><g
transform="translate(435.827,759.2444)"
id="g1986"><path
inkscape:connector-curvature="0"
id="path1988"
style="fill:#004685;fill-opacity:1;fill-rule:nonzero;stroke:none"
d="m 0,0 c -0.131,0.041 -0.314,0.072 -0.617,0.072 -1.354,0 -2.47,-1.34 -2.47,-2.733 0,-0.558 0.206,-1.104 0.888,-1.104 0.758,0 1.646,0.928 1.896,2.258 L 0,0 z m -0.574,-4.353 c 0,0.299 0.054,0.773 0.118,1.29 l -0.02,0 c -0.575,-1.042 -1.301,-1.404 -2.037,-1.404 -0.931,0 -1.505,0.702 -1.505,1.651 0,1.743 1.343,3.568 3.617,3.568 0.499,0 1.051,-0.081 1.409,-0.185 L 0.476,-2.043 C 0.303,-2.909 0.238,-3.796 0.259,-4.353 l -0.833,0 z" /></g><g
transform="translate(441.5332,758.8933)"
id="g1990"><path
inkscape:connector-curvature="0"
id="path1992"
style="fill:#004685;fill-opacity:1;fill-rule:nonzero;stroke:none"
d="m 0,0 0.674,0 c 1.049,0 1.85,0.516 1.85,1.362 0,0.66 -0.531,0.949 -1.321,0.949 C 0.868,2.311 0.596,2.29 0.456,2.249 L 0,0 z m -0.659,-3.321 c 0.227,-0.031 0.487,-0.041 0.735,-0.041 1.061,-0.011 2.059,0.422 2.059,1.536 0,0.815 -0.726,1.177 -1.539,1.177 l -0.736,0 -0.519,-2.672 z m 0.335,6.168 c 0.455,0.083 0.974,0.144 1.57,0.144 0.747,0 1.3,-0.144 1.68,-0.474 0.347,-0.268 0.53,-0.629 0.53,-1.083 0,-0.877 -0.748,-1.526 -1.57,-1.733 l 0,-0.02 c 0.66,-0.186 1.201,-0.712 1.201,-1.547 0,-0.722 -0.4,-1.28 -0.876,-1.62 -0.586,-0.412 -1.387,-0.568 -2.373,-0.568 -0.618,0 -1.169,0.042 -1.505,0.103 l 1.343,6.798 z" /></g><g
transform="translate(447.902,755.4583)"
id="g1994"><path
inkscape:connector-curvature="0"
id="path1996"
style="fill:#004685;fill-opacity:1;fill-rule:nonzero;stroke:none"
d="m 0,0 c 1.06,0 1.861,1.3 1.861,2.465 0,0.579 -0.28,1.393 -1.223,1.393 -1.125,0 -1.874,-1.31 -1.874,-2.455 C -1.236,0.588 -0.759,0 -0.011,0 L 0,0 z m -0.108,-0.68 c -1.312,0 -2.047,0.928 -2.047,2.052 0,1.651 1.202,3.166 2.903,3.166 1.418,0 2.058,-1.021 2.058,-2.073 0,-1.546 -1.149,-3.145 -2.904,-3.145 l -0.01,0 z" /></g><g
transform="translate(451.562,754.8914)"
id="g1998"><path
inkscape:connector-curvature="0"
id="path2000"
style="fill:#004685;fill-opacity:1;fill-rule:nonzero;stroke:none"
d="m 0,0 1.462,7.324 0.899,0 L 0.899,0 0,0 z" /></g><g
transform="translate(454.3033,755.7472)"
id="g2002"><path
inkscape:connector-curvature="0"
id="path2004"
style="fill:#004685;fill-opacity:1;fill-rule:nonzero;stroke:none"
d="m 0,0 c 0.237,-0.143 0.692,-0.309 1.125,-0.309 0.607,0 0.998,0.371 0.998,0.815 0,0.391 -0.184,0.64 -0.738,0.928 -0.605,0.32 -0.942,0.754 -0.942,1.269 0,0.877 0.791,1.547 1.905,1.547 0.468,0 0.889,-0.124 1.084,-0.248 L 3.184,3.353 C 3,3.456 2.674,3.58 2.284,3.58 1.732,3.58 1.342,3.249 1.342,2.827 1.342,2.465 1.591,2.239 2.068,1.99 2.652,1.672 3.042,1.238 3.042,0.671 c 0,-1.052 -0.888,-1.64 -2.003,-1.64 -0.564,0.01 -1.062,0.164 -1.299,0.34 L 0,0 z" /></g><g
transform="translate(462.5673,759.2444)"
id="g2006"><path
inkscape:connector-curvature="0"
id="path2008"
style="fill:#004685;fill-opacity:1;fill-rule:nonzero;stroke:none"
d="m 0,0 c -0.132,0.041 -0.315,0.072 -0.618,0.072 -1.355,0 -2.47,-1.34 -2.47,-2.733 0,-0.558 0.206,-1.104 0.887,-1.104 0.759,0 1.647,0.928 1.897,2.258 L 0,0 z m -0.576,-4.353 c 0,0.299 0.055,0.773 0.12,1.29 l -0.021,0 c -0.575,-1.042 -1.301,-1.404 -2.037,-1.404 -0.932,0 -1.506,0.702 -1.506,1.651 0,1.743 1.344,3.568 3.617,3.568 0.498,0 1.051,-0.081 1.409,-0.185 l -0.53,-2.61 C 0.302,-2.909 0.238,-3.796 0.258,-4.353 l -0.834,0 z" /></g><g
transform="translate(384.0877,778.9032)"
id="g2010"><path
inkscape:connector-curvature="0"
id="path2012"
style="fill:#004685;fill-opacity:1;fill-rule:nonzero;stroke:none"
d="m 0,0 0.996,0 c 1.64,0 2.761,0.675 2.761,1.858 0,0.981 -0.81,1.408 -1.951,1.408 -0.519,0 -0.955,-0.04 -1.183,-0.081 L 0,0 z m -1.204,-6.043 c 0.353,-0.041 0.706,-0.041 1.142,-0.041 1.618,0 3.093,0.633 3.093,2.165 0,1.367 -1.163,1.775 -2.554,1.775 l -0.934,0 -0.747,-3.899 z M -1.951,5.227 C -0.955,5.432 0.353,5.554 1.723,5.554 3.196,5.554 4.255,5.37 5.189,4.839 6.123,4.37 6.808,3.471 6.808,2.307 6.808,0.572 5.521,-0.511 3.985,-0.939 l 0,-0.061 c 1.35,-0.409 2.2,-1.491 2.2,-3.002 0,-1.49 -0.809,-2.551 -1.909,-3.266 -1.184,-0.796 -2.948,-1.123 -5.273,-1.123 -1.577,0 -2.843,0.101 -3.527,0.244 l 2.573,13.374 z" /></g><g
transform="translate(400.8734,770.6136)"
id="g2014"><path
inkscape:connector-curvature="0"
id="path2016"
style="fill:#004685;fill-opacity:1;fill-rule:nonzero;stroke:none"
d="m 0,0 0.701,4.678 c 0.188,1.23 0.444,2.795 0.769,4.426 l -0.051,0 C 0.786,7.641 0.068,6.075 -0.565,4.83 l -2.361,-4.644 -1.916,0 -0.411,4.594 C -5.355,6.025 -5.441,7.59 -5.51,9.104 l -0.034,0 C -5.87,7.607 -6.211,5.89 -6.502,4.678 L -7.648,0 l -2.258,0 2.891,11.343 3.302,0 0.359,-4.326 c 0.068,-1.06 0.188,-2.339 0.205,-3.6 l 0.069,0 c 0.444,1.261 1.06,2.591 1.556,3.618 l 2.138,4.308 3.337,0 L 2.394,0 0,0 z" /></g><g
transform="translate(410.7783,780.5766)"
id="g2018"><path
inkscape:connector-curvature="0"
id="path2020"
style="fill:#004685;fill-opacity:1;fill-rule:nonzero;stroke:none"
d="m 0,0 c -0.667,0 -1.181,-0.622 -1.181,-1.43 0,-0.522 0.188,-0.993 0.514,-1.397 0.888,0.386 1.625,1.01 1.625,1.851 C 0.958,-0.455 0.667,0 0.017,0 L 0,0 z m -1.3,-8.33 c 0.599,0 1.043,0.235 1.403,0.539 -0.582,0.74 -1.386,1.817 -2.037,2.843 -0.513,-0.37 -1.129,-0.943 -1.129,-1.784 0,-0.874 0.6,-1.598 1.746,-1.598 l 0.017,0 z m 3.01,-1.633 c -0.238,0.253 -0.411,0.505 -0.615,0.775 -0.736,-0.539 -1.711,-0.96 -3.115,-0.96 -2.138,0 -3.558,1.161 -3.558,2.996 0,1.733 1.301,2.827 2.789,3.517 l 0.017,0.033 c -0.358,0.589 -0.633,1.229 -0.633,1.919 -0.016,1.835 1.489,3.248 3.61,3.248 1.729,0 2.925,-1.01 2.925,-2.508 0,-1.329 -1.009,-2.289 -2.856,-3.146 l 0,-0.051 c 0.462,-0.707 1.077,-1.548 1.539,-2.171 0.735,0.824 1.232,1.868 1.574,2.894 l 2.276,0 C 5.047,-5.166 4.242,-6.631 2.942,-7.842 c 0.445,-0.64 1.026,-1.38 1.677,-2.121 l -2.909,0 z" /></g><g
transform="translate(418.8704,781.9565)"
id="g2022"><path
inkscape:connector-curvature="0"
id="path2024"
style="fill:#004685;fill-opacity:1;fill-rule:nonzero;stroke:none"
d="m 0,0 6.758,0 -0.411,-2.069 -4.278,0 -0.529,-2.659 4.019,0 -0.41,-2.037 -4.003,0 -0.873,-4.578 -2.463,0 L 0,0 z" /></g><g
transform="translate(431.3199,778.9032)"
id="g2026"><path
inkscape:connector-curvature="0"
id="path2028"
style="fill:#004685;fill-opacity:1;fill-rule:nonzero;stroke:none"
d="m 0,0 0.996,0 c 1.64,0 2.761,0.675 2.761,1.858 0,0.981 -0.81,1.408 -1.952,1.408 -0.519,0 -0.955,-0.04 -1.183,-0.081 L 0,0 z m -1.205,-6.043 c 0.354,-0.041 0.706,-0.041 1.142,-0.041 1.619,0 3.093,0.633 3.093,2.165 0,1.367 -1.163,1.775 -2.554,1.775 l -0.933,0 -0.748,-3.899 z m -0.746,11.27 c 0.995,0.205 2.304,0.327 3.673,0.327 1.473,0 2.532,-0.184 3.466,-0.715 0.934,-0.469 1.62,-1.368 1.62,-2.532 0,-1.735 -1.288,-2.818 -2.824,-3.246 l 0,-0.061 c 1.35,-0.409 2.2,-1.491 2.2,-3.002 0,-1.49 -0.809,-2.551 -1.909,-3.266 -1.183,-0.796 -2.948,-1.123 -5.272,-1.123 -1.577,0 -2.843,0.101 -3.529,0.244 l 2.575,13.374 z" /></g><g
transform="translate(444.0685,772.4485)"
id="g2030"><path
inkscape:connector-curvature="0"
id="path2032"
style="fill:#004685;fill-opacity:1;fill-rule:nonzero;stroke:none"
d="m 0,0 c 1.985,0 3.336,2.759 3.336,4.896 0,1.415 -0.513,2.777 -2.327,2.777 -2.069,0 -3.421,-2.726 -3.421,-4.88 C -2.412,1.195 -1.677,0 -0.017,0 L 0,0 z m -0.343,-2.02 c -2.993,0 -4.67,2.087 -4.67,4.729 0,2.036 0.771,4.039 2.088,5.335 1.078,1.027 2.566,1.649 4.243,1.649 3.045,0 4.652,-2.02 4.652,-4.729 C 5.97,2.911 5.236,0.891 3.935,-0.37 2.874,-1.414 1.403,-2.02 -0.325,-2.02 l -0.018,0 z" /></g><g
transform="translate(452.7802,770.6136)"
id="g2034"><path
inkscape:connector-curvature="0"
id="path2036"
style="fill:#004685;fill-opacity:1;fill-rule:nonzero;stroke:none"
d="m 0,0 -1.438,11.343 2.549,0 0.515,-5.402 C 1.744,4.729 1.831,3.636 1.899,2.458 l 0.034,0 c 0.428,1.11 0.975,2.322 1.541,3.499 l 2.583,5.386 2.753,0 L 2.857,0 0,0 z" /></g><g
transform="translate(468.2455,775.4438)"
id="g2038"><path
inkscape:connector-curvature="0"
id="path2040"
style="fill:#004685;fill-opacity:1;fill-rule:nonzero;stroke:none"
d="m 0,0 -4.089,0 -0.531,-2.761 4.604,0 -0.41,-2.069 -7.067,0 2.189,11.343 6.827,0 -0.411,-2.07 -4.346,0 -0.478,-2.407 4.123,0 L 0,0 z" /></g><g
transform="translate(470.1101,773.2396)"
id="g2042"><path
inkscape:connector-curvature="0"
id="path2044"
style="fill:#004685;fill-opacity:1;fill-rule:nonzero;stroke:none"
d="m 0,0 c 0.684,-0.405 1.642,-0.724 2.721,-0.724 0.94,0 1.813,0.438 1.813,1.313 0,0.656 -0.497,1.06 -1.557,1.615 -1.215,0.64 -2.378,1.548 -2.378,3.013 0,2.289 2.019,3.685 4.534,3.685 1.385,0 2.208,-0.303 2.703,-0.555 L 7.067,6.328 C 6.691,6.529 5.885,6.832 4.928,6.815 3.781,6.815 3.183,6.261 3.183,5.638 3.183,4.964 3.883,4.561 4.859,4.022 6.261,3.298 7.134,2.373 7.134,1.01 c 0,-2.525 -2.12,-3.821 -4.671,-3.821 -1.59,0.017 -2.753,0.421 -3.284,0.808 L 0,0 z" /></g><g
transform="translate(481.8977,776.6721)"
id="g2046"><path
inkscape:connector-curvature="0"
id="path2048"
style="fill:#004685;fill-opacity:1;fill-rule:nonzero;stroke:none"
d="m 0,0 c 0.274,-0.05 0.531,-0.084 0.958,-0.084 1.471,0 2.448,0.926 2.448,2.07 0,1.077 -0.789,1.431 -1.746,1.431 -0.462,0 -0.805,-0.034 -1.01,-0.068 L 0,0 z m -1.421,5.066 c 0.737,0.185 1.883,0.286 2.994,0.286 1.044,0 2.225,-0.168 3.063,-0.758 0.787,-0.504 1.25,-1.312 1.25,-2.406 0,-1.413 -0.667,-2.507 -1.558,-3.18 -0.94,-0.724 -2.292,-1.061 -3.695,-1.061 -0.41,0 -0.753,0.051 -1.009,0.067 l -0.787,-4.072 -2.412,0 2.154,11.124 z" /></g><g
transform="translate(493.2956,775.4105)"
id="g2050"><path
inkscape:connector-curvature="0"
id="path2052"
style="fill:#004685;fill-opacity:1;fill-rule:nonzero;stroke:none"
d="m 0,0 -0.224,2.44 c -0.051,0.623 -0.102,1.531 -0.153,2.222 l -0.051,0 C -0.72,3.971 -1.045,3.096 -1.353,2.44 L -2.482,0 0,0 z m -3.219,-1.852 -1.351,-2.945 -2.634,0 5.628,11.343 3.166,0 1.334,-11.343 -2.582,0 -0.241,2.945 -3.32,0 z" /></g><g
transform="translate(495.3813,766.0715)"
id="g2054"><path
inkscape:connector-curvature="0"
id="path2056"
style="fill:#004685;fill-opacity:1;fill-rule:evenodd;stroke:none"
d="m 0,0 -116.704,0 0.186,0.937 116.702,0 L 0,0 z" /></g><g
transform="translate(532.7967,781.5773)"
id="g2058"><path
inkscape:connector-curvature="0"
id="path2060"
style="fill:#00ae4d;fill-opacity:1;fill-rule:nonzero;stroke:none"
d="M 0,0 C -0.168,-0.111 -0.335,-0.22 -0.505,-0.326 -0.364,-0.1 -0.224,0.127 -0.088,0.356 0.11,0.424 0.308,0.492 0.504,0.564 0.336,0.373 0.169,0.185 0,0 m -2.206,-1.307 c -0.291,-0.156 -0.585,-0.304 -0.882,-0.448 0.051,0.108 0.103,0.214 0.155,0.324 0.166,0.356 0.33,0.718 0.49,1.083 0.359,0.093 0.714,0.191 1.06,0.294 -0.267,-0.425 -0.541,-0.843 -0.823,-1.253 m -1.683,-2.274 c -0.065,-0.051 -0.133,-0.097 -0.2,-0.148 0.124,0.23 0.246,0.463 0.368,0.698 0.133,0.058 0.267,0.116 0.402,0.176 -0.187,-0.246 -0.376,-0.487 -0.57,-0.726 m -1.698,0.766 c 0.221,0.63 0.43,1.265 0.629,1.902 0.477,0.092 0.944,0.19 1.4,0.294 -0.268,-0.586 -0.545,-1.162 -0.832,-1.729 -0.395,-0.165 -0.795,-0.318 -1.197,-0.467 M -5.794,-4.89 c -0.252,-0.157 -0.504,-0.308 -0.761,-0.454 0.199,0.476 0.389,0.956 0.572,1.441 0.32,0.108 0.635,0.22 0.948,0.338 -0.245,-0.45 -0.498,-0.893 -0.759,-1.325 m -2.302,1.282 c 0.188,0.756 0.362,1.514 0.519,2.272 0.57,0.077 1.126,0.162 1.667,0.254 -0.228,-0.708 -0.471,-1.406 -0.727,-2.095 -0.48,-0.155 -0.965,-0.299 -1.459,-0.431 m 0.847,-3.518 c -0.052,-0.045 -0.101,-0.09 -0.152,-0.135 0.094,0.2 0.186,0.4 0.277,0.602 0.105,0.053 0.206,0.108 0.311,0.162 -0.143,-0.213 -0.29,-0.423 -0.436,-0.629 m -1.666,0.6 c 0.196,0.63 0.382,1.273 0.561,1.927 0.442,0.111 0.876,0.232 1.307,0.36 -0.241,-0.599 -0.491,-1.19 -0.751,-1.769 -0.368,-0.183 -0.741,-0.354 -1.117,-0.518 M -9.06,-8.572 c -0.24,-0.172 -0.482,-0.339 -0.729,-0.501 0.177,0.47 0.347,0.947 0.512,1.434 0.299,0.119 0.594,0.244 0.888,0.374 -0.216,-0.443 -0.441,-0.88 -0.671,-1.307 m -1.728,1.325 c -0.171,-0.058 -0.337,-0.111 -0.503,-0.165 0.162,0.745 0.309,1.495 0.442,2.249 0.499,0.101 1.001,0.208 1.507,0.325 -0.202,-0.716 -0.417,-1.425 -0.648,-2.125 -0.264,-0.099 -0.53,-0.194 -0.798,-0.284 m 0.364,-3.646 c -0.052,-0.051 -0.105,-0.101 -0.158,-0.152 0.085,0.194 0.166,0.39 0.247,0.588 0.098,0.056 0.196,0.111 0.292,0.169 -0.126,-0.204 -0.252,-0.405 -0.381,-0.605 m -1.593,0.551 c 0.176,0.632 0.342,1.272 0.494,1.917 0.335,0.105 0.674,0.215 1.018,0.331 0.05,0.016 0.098,0.036 0.145,0.052 -0.218,-0.607 -0.443,-1.204 -0.68,-1.791 -0.321,-0.18 -0.647,-0.35 -0.977,-0.509 m -0.193,-2.116 c -0.196,-0.155 -0.395,-0.306 -0.598,-0.451 0.159,0.471 0.313,0.949 0.461,1.431 0.256,0.111 0.508,0.228 0.758,0.35 -0.2,-0.451 -0.407,-0.895 -0.621,-1.33 m 1.862,10.811 c 0.631,0.057 1.243,0.121 1.839,0.193 -0.171,-0.806 -0.359,-1.607 -0.567,-2.403 -0.543,-0.13 -1.081,-0.251 -1.617,-0.361 0.137,0.856 0.251,1.714 0.345,2.571 m -3.149,-13.197 c -0.01,-0.012 -0.021,-0.021 -0.029,-0.032 0.071,0.184 0.144,0.37 0.212,0.557 0.064,0.039 0.127,0.08 0.191,0.119 -0.122,-0.217 -0.248,-0.432 -0.374,-0.644 M 18.269,16.462 C 14.314,11.207 10.714,7.543 7.064,4.977 c 2.345,2.587 4.647,5.733 7.01,9.537 L 12.579,13.819 C 9.647,9.248 6.801,5.705 3.829,2.993 3.682,2.915 3.537,2.841 3.391,2.767 5.323,5.386 7.159,8.46 8.992,12.154 l -1.31,-0.61 C 5.738,7.758 3.755,4.587 1.675,1.967 1.318,1.815 0.958,1.67 0.595,1.531 2.132,4.268 3.428,7.18 4.522,10.077 L 3.363,9.538 C 2.23,6.645 0.89,3.759 -0.692,1.078 -1.125,0.936 -1.564,0.802 -2.006,0.677 -1.02,3.054 -0.172,5.597 0.525,8.22 L -0.54,7.726 C -1.238,5.216 -2.097,2.739 -3.11,0.387 -3.626,0.261 -4.145,0.144 -4.674,0.037 c 0.622,2.149 1.111,4.325 1.473,6.452 L -4.133,6.056 c -0.372,-2.08 -0.866,-4.165 -1.481,-6.196 -0.585,-0.104 -1.179,-0.197 -1.783,-0.28 0.337,1.785 0.58,3.561 0.733,5.3 L -7.596,4.447 c -0.162,-1.649 -0.403,-3.322 -0.728,-4.988 -0.632,-0.077 -1.275,-0.145 -1.932,-0.205 0.128,1.371 0.204,2.73 0.226,4.063 l -0.865,-0.402 c -0.029,-1.228 -0.104,-2.478 -0.223,-3.735 -0.623,-0.051 -1.258,-0.095 -1.905,-0.134 -3.182,-0.19 -6.519,-0.317 -10.215,-0.385 l -0.913,-0.908 c 4.084,0.062 7.723,0.195 11.18,0.402 0.602,0.036 1.187,0.078 1.759,0.123 -0.101,-0.89 -0.224,-1.783 -0.368,-2.673 -1.18,-0.224 -2.356,-0.406 -3.549,-0.547 -3.934,-0.464 -8.061,-0.731 -12.594,-0.862 l -0.921,-0.919 c 4.931,0.122 9.386,0.394 13.62,0.894 1.103,0.131 2.192,0.295 3.283,0.494 -0.145,-0.795 -0.305,-1.588 -0.484,-2.373 -1.751,-0.538 -3.375,-0.936 -5.009,-1.225 -4.473,-0.791 -9.208,-1.204 -14.84,-1.39 l -0.817,-0.917 c 6.048,0.172 11.071,0.59 15.813,1.429 1.513,0.268 3.016,0.625 4.613,1.098 -0.174,-0.704 -0.363,-1.399 -0.565,-2.087 -2.309,-0.976 -4.318,-1.653 -6.308,-2.123 -4.798,-1.134 -9.942,-1.526 -16.503,-1.641 l -1.389,-0.007 -0.187,-0.938 0.765,0.003 c 7.017,0.099 12.455,0.518 17.519,1.714 1.838,0.433 3.688,1.038 5.761,1.883 -0.193,-0.602 -0.398,-1.194 -0.613,-1.776 -0.303,-0.182 -0.608,-0.356 -0.921,-0.516 -2.398,-1.241 -4.474,-2.106 -6.537,-2.716 -5.218,-1.544 -10.902,-2.233 -18.717,-2.496 l -0.817,-0.919 c 8.333,0.243 14.298,0.933 19.789,2.559 2.117,0.627 4.244,1.51 6.694,2.779 -0.183,-0.447 -0.374,-0.888 -0.57,-1.32 -0.613,-0.51 -1.243,-0.968 -1.895,-1.366 -2.378,-1.449 -4.471,-2.476 -6.586,-3.229 -5.484,-1.957 -11.701,-2.772 -20.649,-3.062 l 0.351,-0.882 c 8.871,0.304 15.082,1.134 20.597,3.102 2.176,0.776 4.32,1.827 6.753,3.309 0.189,0.116 0.376,0.237 0.562,0.361 -0.101,-0.191 -0.205,-0.38 -0.309,-0.568 -0.869,-0.977 -1.793,-1.824 -2.77,-2.511 -2.334,-1.638 -4.443,-2.828 -6.637,-3.746 -4.619,-1.929 -9.739,-2.905 -16.824,-3.375 l 0.349,-0.872 c 7.036,0.484 12.165,1.479 16.819,3.424 2.256,0.943 4.418,2.162 6.806,3.839 0.098,0.068 0.193,0.14 0.29,0.212 -0.878,-1.149 -1.829,-2.147 -2.851,-2.961 -5.668,-4.507 -11.032,-6.707 -19.773,-7.744 l 0.34,-0.848 c 1.35,0.166 2.632,0.359 3.841,0.587 6.397,1.205 11.226,3.392 16.147,7.307 1.884,1.497 3.533,3.608 4.933,6.112 0.966,1.09 1.882,2.354 2.736,3.767 1.142,1.189 2.189,2.548 3.141,4.028 1.101,1.09 2.154,2.34 3.15,3.738 1.194,1.067 2.306,2.259 3.341,3.546 1.274,0.986 2.502,2.115 3.69,3.392 1.344,0.882 2.648,1.9 3.928,3.068 0.281,0.15 0.56,0.305 0.837,0.464 4.943,2.849 9.528,7.353 14.706,14.47 l -1.69,-0.786 z" /></g></g></g></svg>