<svg version="1.1" viewBox="0.0 0.0 600.0 371.0" fill="none" stroke="none" stroke-linecap="square" stroke-miterlimit="10" width="600" height="371" xmlns:xlink="http://www.w3.org/1999/xlink" xmlns="http://www.w3.org/2000/svg"><path fill="#f3f2ee" d="M0 0L600.0 0L600.0 371.0L0 371.0L0 0Z" fill-rule="nonzero"/><path stroke="#c0bfbc" stroke-width="1.0" stroke-linecap="butt" d="M156.5 61.5L156.5 300.5" fill-rule="nonzero"/><path stroke="#c0bfbc" stroke-width="1.0" stroke-linecap="butt" d="M241.5 61.5L241.5 300.5" fill-rule="nonzero"/><path stroke="#c0bfbc" stroke-width="1.0" stroke-linecap="butt" d="M326.5 61.5L326.5 300.5" fill-rule="nonzero"/><path stroke="#c0bfbc" stroke-width="1.0" stroke-linecap="butt" d="M411.5 61.5L411.5 300.5" fill-rule="nonzero"/><path stroke="#c0bfbc" stroke-width="1.0" stroke-linecap="butt" d="M496.5 61.5L496.5 300.5" fill-rule="nonzero"/><path stroke="#c0bfbc" stroke-width="1.0" stroke-linecap="butt" d="M581.5 61.5L581.5 300.5" fill-rule="nonzero"/><path stroke="#262625" stroke-width="1.0" stroke-linecap="butt" d="M88.5 300.5L581.5 300.5" fill-rule="nonzero"/><path stroke="#c0bfbc" stroke-width="1.0" stroke-linecap="butt" d="M88.5 240.5L581.5 240.5" fill-rule="nonzero"/><path stroke="#c0bfbc" stroke-width="1.0" stroke-linecap="butt" d="M88.5 181.5L581.5 181.5" fill-rule="nonzero"/><path stroke="#c0bfbc" stroke-width="1.0" stroke-linecap="butt" d="M88.5 121.5L581.5 121.5" fill-rule="nonzero"/><path stroke="#c0bfbc" stroke-width="1.0" stroke-linecap="butt" d="M88.5 61.5L581.5 61.5" fill-rule="nonzero"/><clipPath id="id_0"><path d="M88.55 61.916668L581.45 61.916668L581.45 300.45L88.55 300.45L88.55 61.916668Z" clip-rule="nonzero"/></clipPath><path stroke="#ff5555" stroke-width="2.0" stroke-linecap="butt" clip-path="url(#id_0)" d="M88.55 71.458L105.546555 78.614L122.543106 85.77L139.53966 95.31133L156.53621 102.46733L173.53276 109.62334L190.52931 119.164665L207.52586 126.32066L224.52242 133.47667L241.51897 143.018L258.5155 150.174L275.51205 157.33L292.5086 166.87134L309.50516 174.02733L326.5017 181.18333L343.4983 190.72467L360.49484 197.88066L377.4914 205.03667L394.48795 214.578L411.4845 221.734L428.48105 228.89L445.4776 238.43134L462.47415 245.58733L479.4707 252.74333L496.46725 262.28467L513.4638 269.44067L530.4603 276.59668L547.4569 286.138L564.4534 293.294L581.45 300.45" fill-rule="nonzero"/><path fill="#000000" fill-opacity="0.0" clip-path="url(#id_0)" d="M91.55 71.458C91.55 73.11485 90.206856 74.458 88.55 74.458C86.89314 74.458 85.55 73.11485 85.55 71.458C85.55 69.80115 86.89314 68.458 88.55 68.458C90.206856 68.458 91.55 69.80115 91.55 71.458Z" fill-rule="nonzero"/><path fill="#000000" fill-opacity="0.0" clip-path="url(#id_0)" d="M108.546555 78.614C108.546555 80.27085 107.20341 81.614 105.546555 81.614C103.889694 81.614 102.546555 80.27085 102.546555 78.614C102.546555 76.957146 103.889694 75.614 105.546555 75.614C107.20341 75.614 108.546555 76.957146 108.546555 78.614Z" fill-rule="nonzero"/><path fill="#000000" fill-opacity="0.0" clip-path="url(#id_0)" d="M125.543106 85.77C125.543106 87.42686 124.19996 88.77 122.543106 88.77C120.886246 88.77 119.543106 87.42686 119.543106 85.77C119.543106 84.113144 120.886246 82.77 122.543106 82.77C124.19996 82.77 125.543106 84.113144 125.543106 85.77Z" fill-rule="nonzero"/><path fill="#000000" fill-opacity="0.0" clip-path="url(#id_0)" d="M142.53966 95.31133C142.53966 96.968185 141.1965 98.31133 139.53966 98.31133C137.8828 98.31133 136.53966 96.968185 136.53966 95.31133C136.53966 93.65448 137.8828 92.31133 139.53966 92.31133C141.1965 92.31133 142.53966 93.65448 142.53966 95.31133Z" fill-rule="nonzero"/><path fill="#000000" fill-opacity="0.0" clip-path="url(#id_0)" d="M159.53621 102.46733C159.53621 104.12419 158.19305 105.46733 156.53621 105.46733C154.87935 105.46733 153.53621 104.12419 153.53621 102.46733C153.53621 100.81048 154.87935 99.46733 156.53621 99.46733C158.19305 99.46733 159.53621 100.81048 159.53621 102.46733Z" fill-rule="nonzero"/><path fill="#000000" fill-opacity="0.0" clip-path="url(#id_0)" d="M176.53276 109.62334C176.53276 111.28019 175.1896 112.62334 173.53276 112.62334C171.8759 112.62334 170.53276 111.28019 170.53276 109.62334C170.53276 107.96648 171.8759 106.62334 173.53276 106.62334C175.1896 106.62334 176.53276 107.96648 176.53276 109.62334Z" fill-rule="nonzero"/><path fill="#000000" fill-opacity="0.0" clip-path="url(#id_0)" d="M193.52931 119.164665C193.52931 120.82152 192.18616 122.164665 190.52931 122.164665C188.87245 122.164665 187.52931 120.82152 187.52931 119.164665C187.52931 117.50781 188.87245 116.164665 190.52931 116.164665C192.18616 116.164665 193.52931 117.50781 193.52931 119.164665Z" fill-rule="nonzero"/><path fill="#000000" fill-opacity="0.0" clip-path="url(#id_0)" d="M210.52586 126.32066C210.52586 127.97752 209.18271 129.32066 207.52586 129.32066C205.869 129.32066 204.52586 127.97752 204.52586 126.32066C204.52586 124.66381 205.869 123.32066 207.52586 123.32066C209.18271 123.32066 210.52586 124.66381 210.52586 126.32066Z" fill-rule="nonzero"/><path fill="#000000" fill-opacity="0.0" clip-path="url(#id_0)" d="M227.52242 133.47667C227.52242 135.13351 226.17928 136.47667 224.52242 136.47667C222.86555 136.47667 221.52242 135.13351 221.52242 133.47667C221.52242 131.81981 222.86555 130.47667 224.52242 130.47667C226.17928 130.47667 227.52242 131.81981 227.52242 133.47667Z" fill-rule="nonzero"/><path fill="#000000" fill-opacity="0.0" clip-path="url(#id_0)" d="M244.51897 143.018C244.51897 144.67485 243.17583 146.018 241.51897 146.018C239.8621 146.018 238.51897 144.67485 238.51897 143.018C238.51897 141.36115 239.8621 140.018 241.51897 140.018C243.17583 140.018 244.51897 141.36115 244.51897 143.018Z" fill-rule="nonzero"/><path fill="#000000" fill-opacity="0.0" clip-path="url(#id_0)" d="M261.5155 150.174C261.5155 151.83086 260.17236 153.174 258.5155 153.174C256.85867 153.174 255.51552 151.83086 255.51552 150.174C255.51552 148.51715 256.85867 147.174 258.5155 147.174C260.17236 147.174 261.5155 148.51715 261.5155 150.174Z" fill-rule="nonzero"/><path fill="#000000" fill-opacity="0.0" clip-path="url(#id_0)" d="M278.51205 157.33C278.51205 158.98685 277.1689 160.33 275.51205 160.33C273.85522 160.33 272.51205 158.98685 272.51205 157.33C272.51205 155.67314 273.85522 154.33 275.51205 154.33C277.1689 154.33 278.51205 155.67314 278.51205 157.33Z" fill-rule="nonzero"/><path fill="#000000" fill-opacity="0.0" clip-path="url(#id_0)" d="M295.5086 166.87134C295.5086 168.52818 294.16547 169.87134 292.5086 169.87134C290.85178 169.87134 289.5086 168.52818 289.5086 166.87134C289.5086 165.21448 290.85178 163.87134 292.5086 163.87134C294.16547 163.87134 295.5086 165.21448 295.5086 166.87134Z" fill-rule="nonzero"/><path fill="#000000" fill-opacity="0.0" clip-path="url(#id_0)" d="M312.50516 174.02733C312.50516 175.68419 311.16202 177.02733 309.50516 177.02733C307.84833 177.02733 306.50516 175.68419 306.50516 174.02733C306.50516 172.37048 307.84833 171.02733 309.50516 171.02733C311.16202 171.02733 312.50516 172.37048 312.50516 174.02733Z" fill-rule="nonzero"/><path fill="#000000" fill-opacity="0.0" clip-path="url(#id_0)" d="M329.5017 181.18333C329.5017 182.8402 328.15857 184.18333 326.5017 184.18333C324.84488 184.18333 323.5017 182.8402 323.5017 181.18333C323.5017 179.52647 324.84488 178.18333 326.5017 178.18333C328.15857 178.18333 329.5017 179.52647 329.5017 181.18333Z" fill-rule="nonzero"/><path fill="#000000" fill-opacity="0.0" clip-path="url(#id_0)" d="M346.4983 190.72467C346.4983 192.38152 345.15512 193.72467 343.4983 193.72467C341.84143 193.72467 340.4983 192.38152 340.4983 190.72467C340.4983 189.06781 341.84143 187.72467 343.4983 187.72467C345.15512 187.72467 346.4983 189.06781 346.4983 190.72467Z" fill-rule="nonzero"/><path fill="#000000" fill-opacity="0.0" clip-path="url(#id_0)" d="M363.49484 197.88066C363.49484 199.53752 362.15167 200.88066 360.49484 200.88066C358.83798 200.88066 357.49484 199.53752 357.49484 197.88066C357.49484 196.22382 358.83798 194.88066 360.49484 194.88066C362.15167 194.88066 363.49484 196.22382 363.49484 197.88066Z" fill-rule="nonzero"/><path fill="#000000" fill-opacity="0.0" clip-path="url(#id_0)" d="M380.4914 205.03667C380.4914 206.69353 379.14822 208.03667 377.4914 208.03667C375.83453 208.03667 374.4914 206.69353 374.4914 205.03667C374.4914 203.3798 375.83453 202.03667 377.4914 202.03667C379.14822 202.03667 380.4914 203.3798 380.4914 205.03667Z" fill-rule="nonzero"/><path fill="#000000" fill-opacity="0.0" clip-path="url(#id_0)" d="M397.48795 214.578C397.48795 216.23485 396.14478 217.578 394.48795 217.578C392.8311 217.578 391.48795 216.23485 391.48795 214.578C391.48795 212.92114 392.8311 211.578 394.48795 211.578C396.14478 211.578 397.48795 212.92114 397.48795 214.578Z" fill-rule="nonzero"/><path fill="#000000" fill-opacity="0.0" clip-path="url(#id_0)" d="M414.4845 221.734C414.4845 223.39085 413.14133 224.734 411.4845 224.734C409.82764 224.734 408.4845 223.39085 408.4845 221.734C408.4845 220.07715 409.82764 218.734 411.4845 218.734C413.14133 218.734 414.4845 220.07715 414.4845 221.734Z" fill-rule="nonzero"/><path fill="#000000" fill-opacity="0.0" clip-path="url(#id_0)" d="M431.48105 228.89C431.48105 230.54686 430.13788 231.89 428.48105 231.89C426.8242 231.89 425.48105 230.54686 425.48105 228.89C425.48105 227.23314 426.8242 225.89 428.48105 225.89C430.13788 225.89 431.48105 227.23314 431.48105 228.89Z" fill-rule="nonzero"/><path fill="#000000" fill-opacity="0.0" clip-path="url(#id_0)" d="M448.4776 238.43134C448.4776 240.08818 447.13443 241.43134 445.4776 241.43134C443.82074 241.43134 442.4776 240.08818 442.4776 238.43134C442.4776 236.77448 443.82074 235.43134 445.4776 235.43134C447.13443 235.43134 448.4776 236.77448 448.4776 238.43134Z" fill-rule="nonzero"/><path fill="#000000" fill-opacity="0.0" clip-path="url(#id_0)" d="M465.47415 245.58733C465.47415 247.24419 464.13098 248.58733 462.47415 248.58733C460.8173 248.58733 459.47415 247.24419 459.47415 245.58733C459.47415 243.93048 460.8173 242.58733 462.47415 242.58733C464.13098 242.58733 465.47415 243.93048 465.47415 245.58733Z" fill-rule="nonzero"/><path fill="#000000" fill-opacity="0.0" clip-path="url(#id_0)" d="M482.4707 252.74333C482.4707 254.40019 481.12753 255.74333 479.4707 255.74333C477.81384 255.74333 476.4707 254.40019 476.4707 252.74333C476.4707 251.08647 477.81384 249.74333 479.4707 249.74333C481.12753 249.74333 482.4707 251.08647 482.4707 252.74333Z" fill-rule="nonzero"/><path fill="#000000" fill-opacity="0.0" clip-path="url(#id_0)" d="M499.46725 262.28467C499.46725 263.94153 498.12408 265.28467 496.46725 265.28467C494.8104 265.28467 493.46725 263.94153 493.46725 262.28467C493.46725 260.6278 494.8104 259.28467 496.46725 259.28467C498.12408 259.28467 499.46725 260.6278 499.46725 262.28467Z" fill-rule="nonzero"/><path fill="#000000" fill-opacity="0.0" clip-path="url(#id_0)" d="M516.4638 269.44067C516.4638 271.09753 515.12067 272.44067 513.4638 272.44067C511.80695 272.44067 510.4638 271.09753 510.4638 269.44067C510.4638 267.7838 511.80695 266.44067 513.4638 266.44067C515.12067 266.44067 516.4638 267.7838 516.4638 269.44067Z" fill-rule="nonzero"/><path fill="#000000" fill-opacity="0.0" clip-path="url(#id_0)" d="M533.4603 276.59668C533.4603 278.2535 532.1172 279.59668 530.4603 279.59668C528.80347 279.59668 527.4603 278.2535 527.4603 276.59668C527.4603 274.93982 528.80347 273.59668 530.4603 273.59668C532.1172 273.59668 533.4603 274.93982 533.4603 276.59668Z" fill-rule="nonzero"/><path fill="#000000" fill-opacity="0.0" clip-path="url(#id_0)" d="M550.4569 286.138C550.4569 287.79486 549.1138 289.138 547.4569 289.138C545.80005 289.138 544.4569 287.79486 544.4569 286.138C544.4569 284.48114 545.80005 283.138 547.4569 283.138C549.1138 283.138 550.4569 284.48114 550.4569 286.138Z" fill-rule="nonzero"/><path fill="#000000" fill-opacity="0.0" clip-path="url(#id_0)" d="M567.4534 293.294C567.4534 294.95087 566.1103 296.294 564.4534 296.294C562.7966 296.294 561.4534 294.95087 561.4534 293.294C561.4534 291.63715 562.7966 290.294 564.4534 290.294C566.1103 290.294 567.4534 291.63715 567.4534 293.294Z" fill-rule="nonzero"/><path fill="#000000" fill-opacity="0.0" clip-path="url(#id_0)" d="M584.45 300.45C584.45 302.10684 583.1069 303.45 581.45 303.45C579.79315 303.45 578.45 302.10684 578.45 300.45C578.45 298.79315 579.79315 297.45 581.45 297.45C583.1069 297.45 584.45 298.79315 584.45 300.45Z" fill-rule="nonzero"/><path fill="#000000" d="M321.92188 349.45L321.92188 340.85626L324.89062 340.85626Q325.89062 340.85626 326.42188 340.98126Q327.15625 341.15314 327.67188 341.59064Q328.35938 342.16876 328.6875 343.075Q329.03125 343.96564 329.03125 345.10626Q329.03125 346.09064 328.79688 346.84064Q328.57812 347.59064 328.21875 348.09064Q327.85938 348.59064 327.42188 348.8719Q327.0 349.15314 326.40625 349.3094Q325.8125 349.45 325.03125 349.45L321.92188 349.45ZM323.0625 348.4344L324.89062 348.4344Q325.75 348.4344 326.23438 348.27814Q326.71875 348.1219 327.0 347.825Q327.40625 347.4344 327.625 346.7469Q327.85938 346.0594 327.85938 345.09064Q327.85938 343.7469 327.40625 343.02814Q326.96875 342.29376 326.34375 342.04376Q325.875 341.8719 324.875 341.8719L323.0625 341.8719L323.0625 348.4344ZM331.125 349.45L331.125 340.85626L332.25 340.85626L332.25 349.45L331.125 349.45ZM332.98438 349.45L336.28125 340.85626L337.5 340.85626L341.01562 349.45L339.73438 349.45L338.71875 346.84064L335.14062 346.84064L334.1875 349.45L332.98438 349.45ZM335.46875 345.91876L338.375 345.91876L337.48438 343.54376Q337.0625 342.46564 336.875 341.7625Q336.70312 342.59064 336.40625 343.40314L335.46875 345.91876ZM341.54688 346.6844L342.60938 346.59064Q342.6875 347.2469 342.96875 347.65314Q343.25 348.0594 343.82812 348.325Q344.42188 348.575 345.15625 348.575Q345.79688 348.575 346.29688 348.3875Q346.79688 348.1844 347.03125 347.85626Q347.28125 347.5125 347.28125 347.1219Q347.28125 346.71564 347.04688 346.41876Q346.8125 346.10626 346.28125 345.90314Q345.92188 345.7625 344.73438 345.48126Q343.5625 345.2 343.09375 344.95Q342.46875 344.6219 342.17188 344.15314Q341.875 343.66876 341.875 343.075Q341.875 342.4344 342.23438 341.8719Q342.60938 341.29376 343.3125 341.0125Q344.03125 340.71564 344.89062 340.71564Q345.84375 340.71564 346.57812 341.02814Q347.3125 341.325 347.70312 341.9344Q348.09375 342.52814 348.125 343.27814L347.03125 343.35626Q346.9375 342.54376 346.42188 342.1375Q345.92188 341.71564 344.9375 341.71564Q343.90625 341.71564 343.4375 342.09064Q342.96875 342.46564 342.96875 342.9969Q342.96875 343.46564 343.29688 343.7625Q343.625 344.0594 345.0 344.3719Q346.39062 344.6844 346.90625 344.91876Q347.65625 345.27814 348.01562 345.8094Q348.375 346.325 348.375 347.02814Q348.375 347.71564 347.98438 348.325Q347.59375 348.91876 346.85938 349.2625Q346.125 349.59064 345.20312 349.59064Q344.03125 349.59064 343.23438 349.2625Q342.45312 348.91876 342.0 348.23126Q341.5625 347.54376 341.54688 346.6844Z" fill-rule="nonzero"/><path fill="#000000" d="M29.550013 196.05833L20.956263 196.05833L20.956263 194.93333L29.550013 194.93333L29.550013 196.05833ZM25.362513 193.60521Q23.221888 193.60521 22.018763 192.46458Q20.800013 191.30833 20.800013 189.49583Q20.800013 188.29271 21.378138 187.33958Q21.940638 186.38646 22.956263 185.88646Q23.971888 185.38646 25.268763 185.38646Q26.565638 185.38646 27.596888 185.91771Q28.628138 186.44896 29.159388 187.41771Q29.690638 188.37083 29.690638 189.49583Q29.690638 190.71458 29.112513 191.66771Q28.518763 192.62083 27.518763 193.12083Q26.503138 193.60521 25.362513 193.60521ZM25.378138 192.43333Q26.940638 192.43333 27.831263 191.60521Q28.721888 190.76146 28.721888 189.49583Q28.721888 188.21458 27.831263 187.38646Q26.925013 186.55833 25.253138 186.55833Q24.206263 186.55833 23.425013 186.91771Q22.643763 187.26146 22.221888 187.94896Q21.784388 188.63646 21.784388 189.48021Q21.784388 190.68333 22.612513 191.55833Q23.440638 192.43333 25.378138 192.43333ZM29.550013 184.19896L20.956263 184.19896L20.956263 178.40208L21.971888 178.40208L21.971888 183.05833L24.628138 183.05833L24.628138 179.02708L25.643763 179.02708L25.643763 183.05833L29.550013 183.05833L29.550013 184.19896Z" fill-rule="nonzero"/><path fill="#000000" d="M65.05 300.21564Q65.05 298.6844 65.3625 297.7625Q65.675 296.825 66.28438 296.325Q66.90938 295.825 67.84688 295.825Q68.53438 295.825 69.05 296.10626Q69.58125 296.3875 69.925 296.91876Q70.26875 297.4344 70.45625 298.1844Q70.64375 298.9344 70.64375 300.21564Q70.64375 301.73126 70.33125 302.65314Q70.03438 303.575 69.40938 304.09064Q68.8 304.59064 67.84688 304.59064Q66.6125 304.59064 65.89375 303.7Q65.05 302.6375 65.05 300.21564ZM66.12813 300.21564Q66.12813 302.325 66.62813 303.02814Q67.12813 303.73126 67.84688 303.73126Q68.58125 303.73126 69.06563 303.02814Q69.56563 302.325 69.56563 300.21564Q69.56563 298.09064 69.06563 297.40314Q68.58125 296.7 67.83125 296.7Q67.1125 296.7 66.675 297.3094Q66.12813 298.09064 66.12813 300.21564ZM72.25313 297.91876Q72.25313 296.9969 72.70625 296.35626Q73.175 295.71564 74.05 295.71564Q74.8625 295.71564 75.39375 296.29376Q75.925 296.8719 75.925 297.98126Q75.925 299.075 75.37813 299.66876Q74.84688 300.2469 74.06563 300.2469Q73.28438 300.2469 72.76875 299.66876Q72.25313 299.09064 72.25313 297.91876ZM74.08125 296.4344Q73.69063 296.4344 73.425 296.77814Q73.175 297.1219 73.175 298.02814Q73.175 298.85626 73.425 299.2Q73.69063 299.52814 74.08125 299.52814Q74.4875 299.52814 74.7375 299.1844Q75.00313 298.84064 75.00313 297.95Q75.00313 297.10626 74.7375 296.77814Q74.47188 296.4344 74.08125 296.4344ZM74.08125 304.7625L78.78438 295.71564L79.64375 295.71564L74.95625 304.7625L74.08125 304.7625ZM77.8 302.4344Q77.8 301.5125 78.25313 300.8719Q78.72188 300.23126 79.6125 300.23126Q80.425 300.23126 80.95625 300.8094Q81.4875 301.3719 81.4875 302.4969Q81.4875 303.59064 80.94063 304.1844Q80.40938 304.7625 79.6125 304.7625Q78.84688 304.7625 78.31563 304.1844Q77.8 303.60626 77.8 302.4344ZM79.64375 300.95Q79.2375 300.95 78.97188 301.29376Q78.72188 301.6375 78.72188 302.54376Q78.72188 303.35626 78.9875 303.7Q79.25313 304.04376 79.64375 304.04376Q80.03438 304.04376 80.3 303.7Q80.56563 303.35626 80.56563 302.45Q80.56563 301.6219 80.3 301.29376Q80.03438 300.95 79.64375 300.95Z" fill-rule="nonzero"/><path fill="#000000" d="M63.596874 243.80104L63.596874 244.81667L57.909374 244.81667Q57.909374 244.44167 58.034374 244.08229Q58.253124 243.50417 58.721874 242.94167Q59.20625 242.37917 60.1125 241.64479Q61.51875 240.48854 62.003124 239.81667Q62.503124 239.14479 62.503124 238.55104Q62.503124 237.92604 62.05 237.50417Q61.596874 237.06667 60.878124 237.06667Q60.1125 237.06667 59.659374 237.51979Q59.20625 237.97292 59.190624 238.78542L58.1125 238.67604Q58.221874 237.45729 58.940624 236.83229Q59.675 236.19167 60.909374 236.19167Q62.14375 236.19167 62.8625 236.87917Q63.58125 237.56667 63.58125 238.58229Q63.58125 239.09792 63.3625 239.59792Q63.159374 240.08229 62.659374 240.64479Q62.175 241.19167 61.05 242.14479Q60.096874 242.94167 59.815624 243.23854Q59.55 243.51979 59.378124 243.80104L63.596874 243.80104ZM65.05 242.56667L66.15938 242.47292Q66.28438 243.28542 66.72188 243.69167Q67.175 244.09792 67.81563 244.09792Q68.56563 244.09792 69.09688 243.51979Q69.62813 242.94167 69.62813 242.00417Q69.62813 241.09792 69.1125 240.58229Q68.6125 240.05104 67.78438 240.05104Q67.28438 240.05104 66.8625 240.28542Q66.45625 240.51979 66.22188 240.87917L65.2375 240.75417L66.06563 236.34792L70.34688 236.34792L70.34688 237.34792L66.90938 237.34792L66.45625 239.66042Q67.22188 239.11354 68.06563 239.11354Q69.19063 239.11354 69.95625 239.89479Q70.7375 240.67604 70.7375 241.91042Q70.7375 243.06667 70.06563 243.92604Q69.2375 244.95729 67.81563 244.95729Q66.64375 244.95729 65.89375 244.30104Q65.15938 243.64479 65.05 242.56667ZM72.25313 238.28542Q72.25313 237.36354 72.70625 236.72292Q73.175 236.08229 74.05 236.08229Q74.8625 236.08229 75.39375 236.66042Q75.925 237.23854 75.925 238.34792Q75.925 239.44167 75.37813 240.03542Q74.84688 240.61354 74.06563 240.61354Q73.28438 240.61354 72.76875 240.03542Q72.25313 239.45729 72.25313 238.28542ZM74.08125 236.80104Q73.69063 236.80104 73.425 237.14479Q73.175 237.48854 73.175 238.39479Q73.175 239.22292 73.425 239.56667Q73.69063 239.89479 74.08125 239.89479Q74.4875 239.89479 74.7375 239.55104Q75.00313 239.20729 75.00313 238.31667Q75.00313 237.47292 74.7375 237.14479Q74.47188 236.80104 74.08125 236.80104ZM74.08125 245.12917L78.78438 236.08229L79.64375 236.08229L74.95625 245.12917L74.08125 245.12917ZM77.8 242.80104Q77.8 241.87917 78.25313 241.23854Q78.72188 240.59792 79.6125 240.59792Q80.425 240.59792 80.95625 241.17604Q81.4875 241.73854 81.4875 242.86354Q81.4875 243.95729 80.94063 244.55104Q80.40938 245.12917 79.6125 245.12917Q78.84688 245.12917 78.31563 244.55104Q77.8 243.97292 77.8 242.80104ZM79.64375 241.31667Q79.2375 241.31667 78.97188 241.66042Q78.72188 242.00417 78.72188 242.91042Q78.72188 243.72292 78.9875 244.06667Q79.25313 244.41042 79.64375 244.41042Q80.03438 244.41042 80.3 244.06667Q80.56563 243.72292 80.56563 242.81667Q80.56563 241.98854 80.3 241.66042Q80.03438 241.31667 79.64375 241.31667Z" fill-rule="nonzero"/><path fill="#000000" d="M58.05 182.93333L59.159374 182.83958Q59.284374 183.65208 59.721874 184.05833Q60.175 184.46458 60.815624 184.46458Q61.565624 184.46458 62.096874 183.88646Q62.628124 183.30833 62.628124 182.37083Q62.628124 181.46458 62.1125 180.94896Q61.6125 180.41771 60.784374 180.41771Q60.284374 180.41771 59.8625 180.65208Q59.45625 180.88646 59.221874 181.24583L58.2375 181.12083L59.065624 176.71458L63.346874 176.71458L63.346874 177.71458L59.909374 177.71458L59.45625 180.02708Q60.221874 179.48021 61.065624 179.48021Q62.190624 179.48021 62.95625 180.26146Q63.7375 181.04271 63.7375 182.27708Q63.7375 183.43333 63.065624 184.29271Q62.2375 185.32396 60.815624 185.32396Q59.64375 185.32396 58.89375 184.66771Q58.159374 184.01146 58.05 182.93333ZM65.05 180.94896Q65.05 179.41771 65.3625 178.49583Q65.675 177.55833 66.28438 177.05833Q66.90938 176.55833 67.84688 176.55833Q68.53438 176.55833 69.05 176.83958Q69.58125 177.12083 69.925 177.65208Q70.26875 178.16771 70.45625 178.91771Q70.64375 179.66771 70.64375 180.94896Q70.64375 182.46458 70.33125 183.38646Q70.03438 184.30833 69.40938 184.82396Q68.8 185.32396 67.84688 185.32396Q66.6125 185.32396 65.89375 184.43333Q65.05 183.37083 65.05 180.94896ZM66.12813 180.94896Q66.12813 183.05833 66.62813 183.76146Q67.12813 184.46458 67.84688 184.46458Q68.58125 184.46458 69.06563 183.76146Q69.56563 183.05833 69.56563 180.94896Q69.56563 178.82396 69.06563 178.13646Q68.58125 177.43333 67.83125 177.43333Q67.1125 177.43333 66.675 178.04271Q66.12813 178.82396 66.12813 180.94896ZM72.25313 178.65208Q72.25313 177.73021 72.70625 177.08958Q73.175 176.44896 74.05 176.44896Q74.8625 176.44896 75.39375 177.02708Q75.925 177.60521 75.925 178.71458Q75.925 179.80833 75.37813 180.40208Q74.84688 180.98021 74.06563 180.98021Q73.28438 180.98021 72.76875 180.40208Q72.25313 179.82396 72.25313 178.65208ZM74.08125 177.16771Q73.69063 177.16771 73.425 177.51146Q73.175 177.85521 73.175 178.76146Q73.175 179.58958 73.425 179.93333Q73.69063 180.26146 74.08125 180.26146Q74.4875 180.26146 74.7375 179.91771Q75.00313 179.57396 75.00313 178.68333Q75.00313 177.83958 74.7375 177.51146Q74.47188 177.16771 74.08125 177.16771ZM74.08125 185.49583L78.78438 176.44896L79.64375 176.44896L74.95625 185.49583L74.08125 185.49583ZM77.8 183.16771Q77.8 182.24583 78.25313 181.60521Q78.72188 180.96458 79.6125 180.96458Q80.425 180.96458 80.95625 181.54271Q81.4875 182.10521 81.4875 183.23021Q81.4875 184.32396 80.94063 184.91771Q80.40938 185.49583 79.6125 185.49583Q78.84688 185.49583 78.31563 184.91771Q77.8 184.33958 77.8 183.16771ZM79.64375 181.68333Q79.2375 181.68333 78.97188 182.02708Q78.72188 182.37083 78.72188 183.27708Q78.72188 184.08958 78.9875 184.43333Q79.25313 184.77708 79.64375 184.77708Q80.03438 184.77708 80.3 184.43333Q80.56563 184.08958 80.56563 183.18333Q80.56563 182.35521 80.3 182.02708Q80.03438 181.68333 79.64375 181.68333Z" fill-rule="nonzero"/><path fill="#000000" d="M58.1125 118.08125L58.1125 117.06563L63.675 117.06563L63.675 117.89375Q62.8625 118.76875 62.05 120.22188Q61.253124 121.65938 60.815624 123.19063Q60.4875 124.26875 60.409374 125.55L59.315624 125.55Q59.33125 124.53438 59.70625 123.09688Q60.096874 121.65938 60.8 120.33125Q61.51875 119.00313 62.33125 118.08125L58.1125 118.08125ZM65.05 123.3L66.15938 123.20625Q66.28438 124.01875 66.72188 124.425Q67.175 124.83125 67.81563 124.83125Q68.56563 124.83125 69.09688 124.25313Q69.62813 123.675 69.62813 122.7375Q69.62813 121.83125 69.1125 121.31563Q68.6125 120.78438 67.78438 120.78438Q67.28438 120.78438 66.8625 121.01875Q66.45625 121.25313 66.22188 121.6125L65.2375 121.4875L66.06563 117.08125L70.34688 117.08125L70.34688 118.08125L66.90938 118.08125L66.45625 120.39375Q67.22188 119.84688 68.06563 119.84688Q69.19063 119.84688 69.95625 120.62813Q70.7375 121.40938 70.7375 122.64375Q70.7375 123.8 70.06563 124.65938Q69.2375 125.69063 67.81563 125.69063Q66.64375 125.69063 65.89375 125.03438Q65.15938 124.37813 65.05 123.3ZM72.25313 119.01875Q72.25313 118.09688 72.70625 117.45625Q73.175 116.81563 74.05 116.81563Q74.8625 116.81563 75.39375 117.39375Q75.925 117.97188 75.925 119.08125Q75.925 120.175 75.37813 120.76875Q74.84688 121.34688 74.06563 121.34688Q73.28438 121.34688 72.76875 120.76875Q72.25313 120.19063 72.25313 119.01875ZM74.08125 117.53438Q73.69063 117.53438 73.425 117.87813Q73.175 118.22188 73.175 119.12813Q73.175 119.95625 73.425 120.3Q73.69063 120.62813 74.08125 120.62813Q74.4875 120.62813 74.7375 120.28438Q75.00313 119.94063 75.00313 119.05Q75.00313 118.20625 74.7375 117.87813Q74.47188 117.53438 74.08125 117.53438ZM74.08125 125.8625L78.78438 116.81563L79.64375 116.81563L74.95625 125.8625L74.08125 125.8625ZM77.8 123.53438Q77.8 122.6125 78.25313 121.97188Q78.72188 121.33125 79.6125 121.33125Q80.425 121.33125 80.95625 121.90938Q81.4875 122.47188 81.4875 123.59688Q81.4875 124.69063 80.94063 125.28438Q80.40938 125.8625 79.6125 125.8625Q78.84688 125.8625 78.31563 125.28438Q77.8 124.70625 77.8 123.53438ZM79.64375 122.05Q79.2375 122.05 78.97188 122.39375Q78.72188 122.7375 78.72188 123.64375Q78.72188 124.45625 78.9875 124.8Q79.25313 125.14375 79.64375 125.14375Q80.03438 125.14375 80.3 124.8Q80.56563 124.45625 80.56563 123.55Q80.56563 122.72188 80.3 122.39375Q80.03438 122.05 79.64375 122.05Z" fill-rule="nonzero"/><path fill="#000000" d="M55.01875 65.916664L53.971874 65.916664L53.971874 59.197914Q53.58125 59.55729 52.95625 59.93229Q52.346874 60.291664 51.8625 60.46354L51.8625 59.447914Q52.7375 59.02604 53.39375 58.447914Q54.065624 57.854164 54.346874 57.291664L55.01875 57.291664L55.01875 65.916664ZM58.05 61.68229Q58.05 60.15104 58.3625 59.229164Q58.675 58.291664 59.284374 57.791664Q59.909374 57.291664 60.846874 57.291664Q61.534374 57.291664 62.05 57.572914Q62.58125 57.854164 62.925 58.385414Q63.26875 58.90104 63.45625 59.65104Q63.64375 60.40104 63.64375 61.68229Q63.64375 63.197914 63.33125 64.11979Q63.034374 65.041664 62.409374 65.55729Q61.8 66.05729 60.846874 66.05729Q59.6125 66.05729 58.89375 65.166664Q58.05 64.104164 58.05 61.68229ZM59.128124 61.68229Q59.128124 63.791664 59.628124 64.49479Q60.128124 65.197914 60.846874 65.197914Q61.58125 65.197914 62.065624 64.49479Q62.565624 63.791664 62.565624 61.68229Q62.565624 59.55729 62.065624 58.86979Q61.58125 58.166664 60.83125 58.166664Q60.1125 58.166664 59.675 58.77604Q59.128124 59.55729 59.128124 61.68229ZM65.05 61.68229Q65.05 60.15104 65.3625 59.229164Q65.675 58.291664 66.28438 57.791664Q66.90938 57.291664 67.84688 57.291664Q68.53438 57.291664 69.05 57.572914Q69.58125 57.854164 69.925 58.385414Q70.26875 58.90104 70.45625 59.65104Q70.64375 60.40104 70.64375 61.68229Q70.64375 63.197914 70.33125 64.11979Q70.03438 65.041664 69.40938 65.55729Q68.8 66.05729 67.84688 66.05729Q66.6125 66.05729 65.89375 65.166664Q65.05 64.104164 65.05 61.68229ZM66.12813 61.68229Q66.12813 63.791664 66.62813 64.49479Q67.12813 65.197914 67.84688 65.197914Q68.58125 65.197914 69.06563 64.49479Q69.56563 63.791664 69.56563 61.68229Q69.56563 59.55729 69.06563 58.86979Q68.58125 58.166664 67.83125 58.166664Q67.1125 58.166664 66.675 58.77604Q66.12813 59.55729 66.12813 61.68229ZM72.25313 59.385414Q72.25313 58.46354 72.70625 57.822914Q73.175 57.18229 74.05 57.18229Q74.8625 57.18229 75.39375 57.760414Q75.925 58.33854 75.925 59.447914Q75.925 60.541664 75.37813 61.135414Q74.84688 61.71354 74.06563 61.71354Q73.28438 61.71354 72.76875 61.135414Q72.25313 60.55729 72.25313 59.385414ZM74.08125 57.90104Q73.69063 57.90104 73.425 58.24479Q73.175 58.58854 73.175 59.49479Q73.175 60.322914 73.425 60.666664Q73.69063 60.99479 74.08125 60.99479Q74.4875 60.99479 74.7375 60.65104Q75.00313 60.30729 75.00313 59.416664Q75.00313 58.572914 74.7375 58.24479Q74.47188 57.90104 74.08125 57.90104ZM74.08125 66.229164L78.78438 57.18229L79.64375 57.18229L74.95625 66.229164L74.08125 66.229164ZM77.8 63.90104Q77.8 62.979164 78.25313 62.33854Q78.72188 61.697914 79.6125 61.697914Q80.425 61.697914 80.95625 62.27604Q81.4875 62.83854 81.4875 63.96354Q81.4875 65.05729 80.94063 65.65104Q80.40938 66.229164 79.6125 66.229164Q78.84688 66.229164 78.31563 65.65104Q77.8 65.072914 77.8 63.90104ZM79.64375 62.416664Q79.2375 62.416664 78.97188 62.760414Q78.72188 63.104164 78.72188 64.010414Q78.72188 64.822914 78.9875 65.166664Q79.25313 65.510414 79.64375 65.510414Q80.03438 65.510414 80.3 65.166664Q80.56563 64.822914 80.56563 63.916664Q80.56563 63.08854 80.3 62.760414Q80.03438 62.416664 79.64375 62.416664Z" fill-rule="nonzero"/><path fill="#000000" d="M153.53621 315.2L154.64558 315.10626Q154.77058 315.91876 155.20808 316.325Q155.66121 316.73126 156.30183 316.73126Q157.05183 316.73126 157.58308 316.15314Q158.11433 315.575 158.11433 314.6375Q158.11433 313.73126 157.59871 313.21564Q157.09871 312.6844 156.27058 312.6844Q155.77058 312.6844 155.34871 312.91876Q154.94246 313.15314 154.70808 313.5125L153.72371 313.3875L154.55183 308.98126L158.83308 308.98126L158.83308 309.98126L155.39558 309.98126L154.94246 312.29376Q155.70808 311.7469 156.55183 311.7469Q157.67683 311.7469 158.44246 312.52814Q159.22371 313.3094 159.22371 314.54376Q159.22371 315.7 158.55183 316.5594Q157.72371 317.59064 156.30183 317.59064Q155.12996 317.59064 154.37996 316.9344Q153.64558 316.27814 153.53621 315.2Z" fill-rule="nonzero"/><path fill="#000000" d="M238.98772 317.45L237.94084 317.45L237.94084 310.73126Q237.55022 311.09064 236.92522 311.46564Q236.31584 311.825 235.83147 311.9969L235.83147 310.98126Q236.70647 310.5594 237.36272 309.98126Q238.03459 309.3875 238.31584 308.825L238.98772 308.825L238.98772 317.45ZM242.01897 313.21564Q242.01897 311.6844 242.33147 310.7625Q242.64397 309.825 243.25334 309.325Q243.87834 308.825 244.81584 308.825Q245.50334 308.825 246.01897 309.10626Q246.55022 309.3875 246.89397 309.91876Q247.23772 310.4344 247.42522 311.1844Q247.61272 311.9344 247.61272 313.21564Q247.61272 314.73126 247.30022 315.65314Q247.00334 316.575 246.37834 317.09064Q245.76897 317.59064 244.81584 317.59064Q243.58147 317.59064 242.86272 316.7Q242.01897 315.6375 242.01897 313.21564ZM243.09709 313.21564Q243.09709 315.325 243.59709 316.02814Q244.09709 316.73126 244.81584 316.73126Q245.55022 316.73126 246.03459 316.02814Q246.53459 315.325 246.53459 313.21564Q246.53459 311.09064 246.03459 310.40314Q245.55022 309.7 244.80022 309.7Q244.08147 309.7 243.64397 310.3094Q243.09709 311.09064 243.09709 313.21564Z" fill-rule="nonzero"/><path fill="#000000" d="M323.97046 317.45L322.92358 317.45L322.92358 310.73126Q322.53296 311.09064 321.90796 311.46564Q321.29858 311.825 320.8142 311.9969L320.8142 310.98126Q321.6892 310.5594 322.34546 309.98126Q323.01733 309.3875 323.29858 308.825L323.97046 308.825L323.97046 317.45ZM327.0017 315.2L328.11108 315.10626Q328.23608 315.91876 328.67358 316.325Q329.1267 316.73126 329.76733 316.73126Q330.51733 316.73126 331.04858 316.15314Q331.57983 315.575 331.57983 314.6375Q331.57983 313.73126 331.0642 313.21564Q330.5642 312.6844 329.73608 312.6844Q329.23608 312.6844 328.8142 312.91876Q328.40796 313.15314 328.17358 313.5125L327.1892 313.3875L328.01733 308.98126L332.29858 308.98126L332.29858 309.98126L328.86108 309.98126L328.40796 312.29376Q329.17358 311.7469 330.01733 311.7469Q331.14233 311.7469 331.90796 312.52814Q332.6892 313.3094 332.6892 314.54376Q332.6892 315.7 332.01733 316.5594Q331.1892 317.59064 329.76733 317.59064Q328.59546 317.59064 327.84546 316.9344Q327.11108 316.27814 327.0017 315.2Z" fill-rule="nonzero"/><path fill="#000000" d="M410.53137 316.4344L410.53137 317.45L404.84387 317.45Q404.84387 317.075 404.96887 316.71564Q405.18762 316.1375 405.65637 315.575Q406.14075 315.0125 407.047 314.27814Q408.45325 313.1219 408.93762 312.45Q409.43762 311.77814 409.43762 311.1844Q409.43762 310.5594 408.9845 310.1375Q408.53137 309.7 407.81262 309.7Q407.047 309.7 406.59387 310.15314Q406.14075 310.60626 406.12512 311.41876L405.047 311.3094Q405.15637 310.09064 405.87512 309.46564Q406.6095 308.825 407.84387 308.825Q409.07825 308.825 409.797 309.5125Q410.51575 310.2 410.51575 311.21564Q410.51575 311.73126 410.297 312.23126Q410.09387 312.71564 409.59387 313.27814Q409.1095 313.825 407.9845 314.77814Q407.03137 315.575 406.75012 315.8719Q406.4845 316.15314 406.31262 316.4344L410.53137 316.4344ZM411.9845 313.21564Q411.9845 311.6844 412.297 310.7625Q412.6095 309.825 413.21887 309.325Q413.84387 308.825 414.78137 308.825Q415.46887 308.825 415.9845 309.10626Q416.51575 309.3875 416.8595 309.91876Q417.20325 310.4344 417.39075 311.1844Q417.57825 311.9344 417.57825 313.21564Q417.57825 314.73126 417.26575 315.65314Q416.96887 316.575 416.34387 317.09064Q415.7345 317.59064 414.78137 317.59064Q413.547 317.59064 412.82825 316.7Q411.9845 315.6375 411.9845 313.21564ZM413.06262 313.21564Q413.06262 315.325 413.56262 316.02814Q414.06262 316.73126 414.78137 316.73126Q415.51575 316.73126 416.00012 316.02814Q416.50012 315.325 416.50012 313.21564Q416.50012 311.09064 416.00012 310.40314Q415.51575 309.7 414.76575 309.7Q414.047 309.7 413.6095 310.3094Q413.06262 311.09064 413.06262 313.21564Z" fill-rule="nonzero"/><path fill="#000000" d="M495.51413 316.4344L495.51413 317.45L489.82663 317.45Q489.82663 317.075 489.95163 316.71564Q490.17038 316.1375 490.63913 315.575Q491.1235 315.0125 492.02975 314.27814Q493.436 313.1219 493.92038 312.45Q494.42038 311.77814 494.42038 311.1844Q494.42038 310.5594 493.96725 310.1375Q493.51413 309.7 492.79538 309.7Q492.02975 309.7 491.57663 310.15314Q491.1235 310.60626 491.10788 311.41876L490.02975 311.3094Q490.13913 310.09064 490.85788 309.46564Q491.59225 308.825 492.82663 308.825Q494.061 308.825 494.77975 309.5125Q495.4985 310.2 495.4985 311.21564Q495.4985 311.73126 495.27975 312.23126Q495.07663 312.71564 494.57663 313.27814Q494.09225 313.825 492.96725 314.77814Q492.01413 315.575 491.73288 315.8719Q491.46725 316.15314 491.29538 316.4344L495.51413 316.4344ZM496.96725 315.2L498.07663 315.10626Q498.20163 315.91876 498.63913 316.325Q499.09225 316.73126 499.73288 316.73126Q500.48288 316.73126 501.01413 316.15314Q501.54538 315.575 501.54538 314.6375Q501.54538 313.73126 501.02975 313.21564Q500.52975 312.6844 499.70163 312.6844Q499.20163 312.6844 498.77975 312.91876Q498.3735 313.15314 498.13913 313.5125L497.15475 313.3875L497.98288 308.98126L502.26413 308.98126L502.26413 309.98126L498.82663 309.98126L498.3735 312.29376Q499.13913 311.7469 499.98288 311.7469Q501.10788 311.7469 501.8735 312.52814Q502.65475 313.3094 502.65475 314.54376Q502.65475 315.7 501.98288 316.5594Q501.15475 317.59064 499.73288 317.59064Q498.561 317.59064 497.811 316.9344Q497.07663 316.27814 496.96725 315.2Z" fill-rule="nonzero"/><path fill="#000000" d="M574.95 315.1844L576.0125 315.04376Q576.1844 315.9344 576.6219 316.34064Q577.0594 316.73126 577.6844 316.73126Q578.4344 316.73126 578.95 316.21564Q579.46564 315.7 579.46564 314.9344Q579.46564 314.21564 578.98126 313.7469Q578.5125 313.2625 577.77814 313.2625Q577.48126 313.2625 577.02814 313.3875L577.15314 312.45Q577.2625 312.46564 577.325 312.46564Q577.9969 312.46564 578.52814 312.1219Q579.075 311.7625 579.075 311.02814Q579.075 310.45 578.6844 310.075Q578.29376 309.6844 577.66876 309.6844Q577.0594 309.6844 576.6375 310.075Q576.23126 310.46564 576.1219 311.23126L575.0594 311.04376Q575.2469 309.9969 575.9344 309.41876Q576.6219 308.825 577.6375 308.825Q578.34064 308.825 578.9344 309.1375Q579.52814 309.4344 579.84064 309.95Q580.15314 310.46564 580.15314 311.0594Q580.15314 311.60626 579.85626 312.075Q579.5594 312.52814 578.98126 312.79376Q579.73126 312.96564 580.15314 313.52814Q580.575 314.075 580.575 314.91876Q580.575 316.04376 579.7469 316.825Q578.9344 317.60626 577.6844 317.60626Q576.5594 317.60626 575.8094 316.9344Q575.0594 316.2469 574.95 315.1844ZM581.95 313.21564Q581.95 311.6844 582.2625 310.7625Q582.575 309.825 583.1844 309.325Q583.8094 308.825 584.7469 308.825Q585.4344 308.825 585.95 309.10626Q586.48126 309.3875 586.825 309.91876Q587.16876 310.4344 587.35626 311.1844Q587.54376 311.9344 587.54376 313.21564Q587.54376 314.73126 587.23126 315.65314Q586.9344 316.575 586.3094 317.09064Q585.7 317.59064 584.7469 317.59064Q583.5125 317.59064 582.79376 316.7Q581.95 315.6375 581.95 313.21564ZM583.02814 313.21564Q583.02814 315.325 583.52814 316.02814Q584.02814 316.73126 584.7469 316.73126Q585.48126 316.73126 585.96564 316.02814Q586.46564 315.325 586.46564 313.21564Q586.46564 311.09064 585.96564 310.40314Q585.48126 309.7 584.73126 309.7Q584.0125 309.7 583.575 310.3094Q583.02814 311.09064 583.02814 313.21564Z" fill-rule="nonzero"/><path fill="#757575" d="M20.409374 37.55L20.409374 23.2375L22.315624 23.2375L22.315624 37.55L20.409374 37.55ZM25.51875 30.58125Q25.51875 27.01875 27.425 25.003124Q29.346874 22.971874 32.378124 22.971874Q34.3625 22.971874 35.940624 23.925Q37.534374 24.878124 38.3625 26.58125Q39.20625 28.26875 39.20625 30.409374Q39.20625 32.58125 38.33125 34.3Q37.45625 36.01875 35.83125 36.909374Q34.221874 37.8 32.3625 37.8Q30.346874 37.8 28.753124 36.83125Q27.159374 35.846874 26.33125 34.159374Q25.51875 32.45625 25.51875 30.58125ZM27.471874 30.6125Q27.471874 33.190624 28.8625 34.690624Q30.253124 36.175 32.346874 36.175Q34.4875 36.175 35.8625 34.675Q37.253124 33.159374 37.253124 30.39375Q37.253124 28.659374 36.659374 27.3625Q36.08125 26.05 34.940624 25.33125Q33.8 24.6125 32.378124 24.6125Q30.378124 24.6125 28.925 26.003124Q27.471874 27.378124 27.471874 30.6125ZM42.190624 37.55L42.190624 23.2375L51.846874 23.2375L51.846874 24.925L44.08125 24.925L44.08125 29.3625L50.8 29.3625L50.8 31.05L44.08125 31.05L44.08125 37.55L42.190624 37.55ZM62.753124 37.55L58.8 27.175L60.659374 27.175L62.89375 33.39375Q63.253124 34.39375 63.55 35.471874Q63.784374 34.659374 64.20625 33.503124L66.50313 27.175L68.31563 27.175L64.39375 37.55L62.753124 37.55ZM76.97188 34.20625L78.78438 34.440624Q78.3625 36.01875 77.19063 36.909374Q76.03438 37.784374 74.22188 37.784374Q71.95625 37.784374 70.6125 36.39375Q69.28438 34.9875 69.28438 32.45625Q69.28438 29.83125 70.62813 28.39375Q71.97188 26.940624 74.12813 26.940624Q76.20625 26.940624 77.51875 28.3625Q78.84688 29.76875 78.84688 32.346874Q78.84688 32.503124 78.83125 32.815624L71.09688 32.815624Q71.19063 34.51875 72.06563 35.425Q72.94063 36.33125 74.2375 36.33125Q75.20625 36.33125 75.87813 35.83125Q76.56563 35.315624 76.97188 34.20625ZM71.19063 31.3625L76.9875 31.3625Q76.87813 30.065624 76.33125 29.409374Q75.4875 28.39375 74.14375 28.39375Q72.94063 28.39375 72.1125 29.20625Q71.28438 30.003124 71.19063 31.3625ZM80.84688 37.55L80.84688 27.175L82.425 27.175L82.425 28.753124Q83.03438 27.64375 83.55 27.3Q84.06563 26.940624 84.675 26.940624Q85.56563 26.940624 86.4875 27.503124L85.87813 29.14375Q85.2375 28.753124 84.59688 28.753124Q84.01875 28.753124 83.55 29.1125Q83.09688 29.45625 82.89375 30.065624Q82.6125 31.003124 82.6125 32.1125L82.6125 37.55L80.84688 37.55ZM87.15938 34.45625L88.90938 34.175Q89.05 35.221874 89.72188 35.784374Q90.39375 36.33125 91.59688 36.33125Q92.8 36.33125 93.37813 35.846874Q93.97188 35.346874 93.97188 34.690624Q93.97188 34.096874 93.45625 33.753124Q93.09688 33.51875 91.65938 33.159374Q89.72188 32.659374 88.97188 32.315624Q88.2375 31.95625 87.84688 31.33125Q87.45625 30.690624 87.45625 29.925Q87.45625 29.2375 87.76875 28.64375Q88.09688 28.05 88.64375 27.659374Q89.05 27.3625 89.75313 27.159374Q90.47188 26.940624 91.28438 26.940624Q92.50313 26.940624 93.425 27.3Q94.34688 27.64375 94.78438 28.253124Q95.22188 28.846874 95.39375 29.846874L93.675 30.08125Q93.55 29.284374 92.9875 28.846874Q92.425 28.39375 91.40938 28.39375Q90.19063 28.39375 89.675 28.8Q89.15938 29.190624 89.15938 29.721874Q89.15938 30.065624 89.37813 30.346874Q89.58125 30.628124 90.05 30.815624Q90.31563 30.909374 91.59688 31.253124Q93.47188 31.753124 94.20625 32.08125Q94.94063 32.39375 95.3625 33.003124Q95.78438 33.596874 95.78438 34.503124Q95.78438 35.378124 95.26875 36.159374Q94.75313 36.940624 93.78438 37.3625Q92.81563 37.784374 91.59688 37.784374Q89.58125 37.784374 88.51875 36.940624Q87.45625 36.096874 87.15938 34.45625ZM104.65938 37.55L104.65938 36.01875Q103.45625 37.784374 101.37813 37.784374Q100.45625 37.784374 99.65938 37.440624Q98.8625 37.08125 98.47188 36.55Q98.09688 36.01875 97.94063 35.2375Q97.83125 34.721874 97.83125 33.596874L97.83125 27.175L99.58125 27.175L99.58125 32.925Q99.58125 34.3 99.69063 34.784374Q99.8625 35.471874 100.39375 35.878124Q100.94063 36.26875 101.72188 36.26875Q102.51875 36.26875 103.20625 35.8625Q103.90938 35.45625 104.19063 34.76875Q104.4875 34.065624 104.4875 32.7375L104.4875 27.175L106.2375 27.175L106.2375 37.55L104.65938 37.55ZM108.15938 34.45625L109.90938 34.175Q110.05 35.221874 110.72188 35.784374Q111.39375 36.33125 112.59688 36.33125Q113.8 36.33125 114.37813 35.846874Q114.97188 35.346874 114.97188 34.690624Q114.97188 34.096874 114.45625 33.753124Q114.09688 33.51875 112.65938 33.159374Q110.72188 32.659374 109.97188 32.315624Q109.2375 31.95625 108.84688 31.33125Q108.45625 30.690624 108.45625 29.925Q108.45625 29.2375 108.76875 28.64375Q109.09688 28.05 109.64375 27.659374Q110.05 27.3625 110.75313 27.159374Q111.47188 26.940624 112.28438 26.940624Q113.50313 26.940624 114.425 27.3Q115.34688 27.64375 115.78438 28.253124Q116.22188 28.846874 116.39375 29.846874L114.675 30.08125Q114.55 29.284374 113.9875 28.846874Q113.425 28.39375 112.40938 28.39375Q111.19063 28.39375 110.675 28.8Q110.15938 29.190624 110.15938 29.721874Q110.15938 30.065624 110.37813 30.346874Q110.58125 30.628124 111.05 30.815624Q111.31563 30.909374 112.59688 31.253124Q114.47188 31.753124 115.20625 32.08125Q115.94063 32.39375 116.3625 33.003124Q116.78438 33.596874 116.78438 34.503124Q116.78438 35.378124 116.26875 36.159374Q115.75313 36.940624 114.78438 37.3625Q113.81563 37.784374 112.59688 37.784374Q110.58125 37.784374 109.51875 36.940624Q108.45625 36.096874 108.15938 34.45625ZM128.7375 37.55L128.7375 24.925L124.01875 24.925L124.01875 23.2375L135.3625 23.2375L135.3625 24.925L130.62813 24.925L130.62813 37.55L128.7375 37.55ZM143.97188 34.20625L145.78438 34.440624Q145.3625 36.01875 144.19063 36.909374Q143.03438 37.784374 141.22188 37.784374Q138.95625 37.784374 137.6125 36.39375Q136.28438 34.9875 136.28438 32.45625Q136.28438 29.83125 137.62813 28.39375Q138.97188 26.940624 141.12813 26.940624Q143.20625 26.940624 144.51875 28.3625Q145.84688 29.76875 145.84688 32.346874Q145.84688 32.503124 145.83125 32.815624L138.09688 32.815624Q138.19063 34.51875 139.06563 35.425Q139.94063 36.33125 141.2375 36.33125Q142.20625 36.33125 142.87813 35.83125Q143.56563 35.315624 143.97188 34.20625ZM138.19063 31.3625L143.9875 31.3625Q143.87813 30.065624 143.33125 29.409374Q142.4875 28.39375 141.14375 28.39375Q139.94063 28.39375 139.1125 29.20625Q138.28438 30.003124 138.19063 31.3625ZM147.8625 37.55L147.8625 27.175L149.44063 27.175L149.44063 28.628124Q149.925 27.878124 150.7375 27.409374Q151.55 26.940624 152.58125 26.940624Q153.7375 26.940624 154.47188 27.425Q155.20625 27.89375 155.51875 28.753124Q156.75313 26.940624 158.72188 26.940624Q160.26875 26.940624 161.09688 27.8Q161.925 28.659374 161.925 30.425L161.925 37.55L160.175 37.55L160.175 31.01875Q160.175 29.95625 160.00313 29.503124Q159.83125 29.034374 159.37813 28.753124Q158.94063 28.471874 158.33125 28.471874Q157.2375 28.471874 156.50313 29.20625Q155.78438 29.925 155.78438 31.51875L155.78438 37.55L154.03438 37.55L154.03438 30.815624Q154.03438 29.64375 153.59688 29.065624Q153.175 28.471874 152.19063 28.471874Q151.45625 28.471874 150.81563 28.8625Q150.19063 29.253124 149.90938 30.003124Q149.62813 30.753124 149.62813 32.175L149.62813 37.55L147.8625 37.55ZM164.8625 41.51875L164.8625 27.175L166.47188 27.175L166.47188 28.51875Q167.03438 27.7375 167.7375 27.346874Q168.45625 26.940624 169.47188 26.940624Q170.8 26.940624 171.81563 27.628124Q172.83125 28.315624 173.34688 29.565624Q173.87813 30.8 173.87813 32.284374Q173.87813 33.878124 173.3 35.159374Q172.7375 36.425 171.64375 37.1125Q170.55 37.784374 169.34688 37.784374Q168.47188 37.784374 167.76875 37.409374Q167.08125 37.034374 166.62813 36.471874L166.62813 41.51875L164.8625 41.51875ZM166.45625 32.425Q166.45625 34.425 167.26875 35.378124Q168.08125 36.33125 169.2375 36.33125Q170.40938 36.33125 171.2375 35.346874Q172.08125 34.3625 172.08125 32.26875Q172.08125 30.3 171.25313 29.315624Q170.44063 28.315624 169.31563 28.315624Q168.19063 28.315624 167.31563 29.378124Q166.45625 30.425 166.45625 32.425ZM175.22188 32.3625Q175.22188 29.4875 176.81563 28.096874Q178.15938 26.940624 180.08125 26.940624Q182.22188 26.940624 183.56563 28.346874Q184.925 29.753124 184.925 32.221874Q184.925 34.221874 184.33125 35.378124Q183.7375 36.51875 182.58125 37.159374Q181.44063 37.784374 180.08125 37.784374Q177.89375 37.784374 176.55 36.39375Q175.22188 34.9875 175.22188 32.3625ZM177.01875 32.3625Q177.01875 34.3625 177.87813 35.346874Q178.75313 36.33125 180.08125 36.33125Q181.39375 36.33125 182.25313 35.346874Q183.12813 34.346874 183.12813 32.3Q183.12813 30.378124 182.25313 29.39375Q181.37813 28.39375 180.08125 28.39375Q178.75313 28.39375 177.87813 29.39375Q177.01875 30.378124 177.01875 32.3625Z" fill-rule="nonzero"/></svg>